<svg xmlns="http://www.w3.org/2000/svg" xmlns:xlink="http://www.w3.org/1999/xlink" width="576" height="480" fill="none"><path d="M333.97 438.28c59.697 33.024 191.8-18.315 191.8-145.058-.001-205.136-186.963-240.15-296.562-240.15-196.542 0-268.717 222.068-35.458 240.15 207.915 16.117 12.772 74.55 140.22 145.058z" fill="#fcddd4"/><mask id="a" maskUnits="userSpaceOnUse" x="0" y="0" width="576" height="480"><path d="M333.916 438.28c59.696 33.024 191.8-18.315 191.798-145.058-.001-205.136-186.963-240.15-296.56-240.15-196.543 0-268.718 222.068-35.46 240.15 207.915 16.117 12.772 74.55 140.222 145.058z" fill="#f6a182"/></mask><g mask="url(#a)"><path opacity=".7" d="M59 310.876c21.156-27.485 77.192-81.08 132.085-75.584C259.7 242.164 129.33 371 191.085 371S282 212.96 326.6 212.96s-49.746 116.81 0 123.683 90.915-164.91 145.808-166.63S415.8 310.876 505 310.876" stroke="url(#B)" stroke-width="2"/><path d="M366.56 479.55l-21.517-1.825 1.094-26.634 21.7 2.006-1.277 26.453z" fill="#d88d6c"/><path d="M326.442 475.9s14.224-6.567 16.594-11.31c0 0 4.194-15.324 10.577-7.297 0 0 6.564 5.29 15.864 1.095l1.094 29.006-64.37-.182c1.64-4.38 3.1-9.304 20.24-11.31z" fill="url(#C)"/><path d="M460.834 475.9l-21.518 3.65-5.652-25.905 21.335-3.65 5.835 25.905z" fill="#d88d6c"/><path d="M419.44 475.9s14.224-6.567 16.594-11.3c0 0-3.282-12.04 4.377-6.02 0 0 13.13 4.926 18.6-1.094l4.377 30.1-64.37-.182c2.006-4.56 3.465-9.487 20.423-11.494z" fill="url(#D)"/><path d="M341.394 228.524s-3.83 109.64-.365 234.24c0 0 10.394 9.85 30.088 3.284 0 0-.182-138.647 5.106-193.74 0 0 24.8 104.715 56.164 195.383 0 0 20.97 4.013 28.447-7.845 0 0-42.305-146.856-48.505-231.322h-70.935z" fill="url(#E)"/><g fill="#402b2b"><path d="M341.395 228.524h70.934c.547 6.385 1.094 13.135 2.006 20.068-42.305.182-64.735-10.58-73.123-15.507 0-3.1.183-4.56.183-4.56z" fill-opacity=".45" style="mix-blend-mode:multiply"/><path d="M-35.548 275.092c0 20.453 11.78 36.978 26.266 36.978h26.266c14.487 0 26.13-16.66 26.13-36.978 0-20.453-11.78-36.978-26.266-36.978h-26.13c-14.622 0-26.266 16.66-26.266 36.978z"/></g><path d="M170.246 274.685c0 20.453 11.78 36.98 26.266 36.98h26.266c14.487 0 26.13-16.66 26.13-36.98 0-20.453-11.78-36.978-26.266-36.978h-26.13c-14.622 0-26.266 16.525-26.266 36.978z" fill="#f48767"/><path d="M-37.308 271.57l105.74-.27-12.185-7.18-80.017.136-13.54 7.314z" fill="#402b2b"/><path d="M-137.092 211.295l.136 67.86 85.838-.136 27.35-14.764 80.017-.135 24.64 14.63 174.656-.407a5.143 5.143 0 005.145-5.147l-.135-62.714-397.647.813z" fill="#f36f49"/><path d="M50.02 226.736l137.017-.27-.27-124.21c0-5.01-4.06-9.075-9.206-9.075l-127.946.27.406 133.284z" fill="#f48767"/><path d="M-163.628 227.278l213.514-.406-.27-133.284-204.442.406c-5 0-9.07 4.064-9.07 9.21l.27 124.073z" fill="#f06a5b"/><g fill="#f48767"><path d="M152.917 274.685c0 20.453-11.643 36.98-26.13 36.98h-26.13v-12.462c-9.613 0-17.466-10.972-17.466-24.517s7.717-24.516 17.33-24.516v-12.462h26.13c14.487.136 26.13 16.66 26.266 36.978z"/><path d="M78.995 274.957c0 16.796 9.613 30.34 21.527 30.205 11.915 0 21.392-13.545 21.392-30.34s-9.612-30.34-21.527-30.205c-11.78 0-21.392 13.545-21.392 30.34z"/></g><path d="M100.52 294.867c7.853 0 14.08-8.94 14.08-20.046s-6.364-19.912-14.217-19.912-14.08 8.94-14.08 20.047 6.363 19.9 14.216 19.9zm0-31.83c4.603 0 8.394 5.283 8.394 11.785s-3.8 11.92-8.394 11.92-8.395-5.282-8.395-11.784c0-6.637 3.656-11.92 8.395-11.92zm0 48.763c14.487 0 26.13-16.66 26.13-36.978s-11.78-36.978-26.266-36.978-26.13 16.66-26.13 36.978S86.17 311.934 100.52 311.8zm-.135-67.184c11.914 0 21.527 13.545 21.527 30.206 0 16.796-9.477 30.34-21.392 30.34s-21.527-13.545-21.527-30.206c0-16.796 9.613-30.34 21.392-30.34z" fill="#f7a58d"/><path d="M96.866 274.82c0-2.845 1.625-5.012 3.52-5.012s3.52 2.303 3.656 5.012c0 2.844-1.625 5.012-3.52 5.012-2.03.135-3.656-2.168-3.656-5.012z" fill="#5b2929"/><g fill="#f69276"><path d="M277.75 173.504c0 .542.406.948.812 1.084 1.083.27 5.145.27 6.363-.136.542-.135 1.083-.542 1.083-1.22.407-10.836.407-21.4 0-31.425 0-.677-.54-1.083-1.083-1.22-1.354-.406-6.092-.677-7.582-.135-.54.135-.947.677-.947 1.22-.27 10.294.135 20.86 1.354 31.83z"/><path d="M271.116 183.12c.135 0 .27 0 .54-.136l9.207-4.605a6.319 6.319 0 003.52-5.69l-.135-33.998a2.429 2.429 0 00-2.437-2.44h-25.32c-.677 0-1.083.542-1.083 1.084 0 .677.542 1.084 1.083 1.084h25.32c.135 0 .135.135.135.135l.135 33.998c0 1.626-.947 2.98-2.3 3.658l-9.207 4.605c-.542.27-.812.948-.542 1.5.27.677.677.813 1.084.813z"/></g><path d="M68.434 226.465h30.463c16.112 0 19.903 7.99 29.786 27.632l31.276-.136v-6.23l119.416-.27c.54-9.888 1.624-29.935 1.624-48.898v-1.897c0-5.418-.947-11.377-2.572-17.337-6.364-23.298-22.475-48.086-29.11-57.16l-5.687-7.856c-4.603-6.095-7.717-9.21-13.54-9.21l-144.734.407c-2.98 0-5.686 2.032-6.5 4.876-12.456 45.783-10.56 80.593-10.425 116.082zm121.988-104.84c-.135-.677.406-1.22 1.083-1.22l44.003-.135c2.572 0 5.145 1.354 6.77 3.657 17.195 23.433 24.1 44.834 26.672 57.16l2.708 13.003c.406 1.896-.812 3.386-2.708 3.386h-10.695c-1.76 0-3.656-.813-5-2.167L231.3 174.316c-2.437-2.303-5.686-3.657-8.8-3.657h-26.266l-5.822-49.034z" fill="#f36f49"/><path d="M167.675 179.735l2.978 13.545c.677 3.25 3.52 5.553 6.77 5.69 42.784 1.5 78.257 1.625 103.575-.27v-1.896c0-5.42-.948-11.378-2.572-17.338l-110.75.27z" fill="#f6977c"/><path d="M88.606 120.542l44.002-.135a6.8 6.8 0 016.093 3.657c12.32 23.433 14.893 44.834 14.893 57.16v13.004a3.35 3.35 0 01-3.385 3.386h-10.696c-1.76 0-3.52-.813-4.603-2.167l-17.6-20.995c-2.03-2.303-4.874-3.793-7.988-3.657H83.055l4.197-49.034c0-.677.54-1.22 1.354-1.22z" fill="#f36f49"/><path d="M68.434 226.465h30.463c16.112 0 19.903 7.99 29.786 27.632l31.276-.136v-6.23l119.416-.27c.54-9.888 1.624-29.935 1.624-48.898-25.318 1.896-60.926 1.896-103.575.27-3.25-.136-6.092-2.438-6.77-5.69-.948-4.74-2.03-9.346-2.98-13.545-5.822-24.788-12.185-42.532-20.58-61.766-.677-1.5.406-3.25 2.03-3.25l94.504-.27c-4.603-6.095-7.717-9.21-13.54-9.21l-144.734.407c-2.98 0-5.686 2.032-6.5 4.876-12.456 45.783-10.56 80.593-10.425 116.082zm14.487-55.67l4.197-49.033c0-.677.677-1.22 1.354-1.22l44.002-.136a6.8 6.8 0 016.093 3.658c12.32 23.433 14.893 44.834 14.893 57.16v13.003a3.35 3.35 0 01-3.385 3.387H139.38c-1.76 0-3.52-.813-4.603-2.168l-17.6-20.995c-2.03-2.302-4.874-3.792-7.988-3.657H82.92z" fill="#f7a58d"/><path d="M73.713 222.943c0 2.032 1.625 3.522 3.656 3.522h21.527c16.112 0 19.903 7.992 29.786 27.632l31.276-.135v-6.23l-.135-54.858c0-27.226-4.874-44.428-17.737-71.654-1.895-4.063-6.092-6.637-10.56-6.637l-46.575.136c-1.083 0-1.895.677-2.166 1.625-9.207 34.947-9.207 91.836-9.07 106.6zm9.207-52.148l4.197-49.034c0-.677.677-1.22 1.354-1.22l44.002-.135c2.573 0 4.875 1.354 6.093 3.657 12.32 23.433 14.893 44.834 14.893 57.16v13.004a3.35 3.35 0 01-3.385 3.386h-10.696c-1.76 0-3.52-.813-4.603-2.167l-17.6-20.995c-2.03-2.303-4.874-3.793-7.988-3.657H82.92z" fill="#f58a6b"/><path d="M88.877 122.167l43.73-.135c1.896 0 3.656 1.084 4.604 2.71 12.726 24.246 14.757 45.783 14.757 56.348v13.003c0 .948-.812 1.76-1.76 1.76h-10.696c-1.354 0-2.572-.542-3.385-1.5l-17.6-20.995a12.239 12.239 0 00-9.342-4.334h-24.37l4.062-46.867zm-.27-1.625c-.677 0-1.354.542-1.354 1.22l-4.197 49.034h26.266c3.114 0 5.957 1.354 7.988 3.657l17.6 20.995c1.083 1.354 2.843 2.167 4.603 2.167h10.696a3.35 3.35 0 003.385-3.386v-13.004c0-12.326-2.572-33.727-14.893-57.16a6.8 6.8 0 00-6.093-3.657l-44.002.135z" fill="#f7a58d"/><path d="M159.824 221.86v25.872l47.252-.136c-.54-6.772-1.76-13.274-3.8-19.37a6.77 6.77 0 00-5.416-4.606c-10.425-1.22-23.693-1.76-38.045-1.76zm95.587 25.736h23.423c.406-5.7.812-14.9 1.218-25.33a163.71 163.71 0 00-15.705 1.5 6.77 6.77 0 00-5.416 4.605c-1.895 5.96-2.978 12.462-3.52 19.234zm-95.45 26.142l109.532-.27c7.447 0 13.54-6.096 13.54-13.546v-2.302c0-2.167-1.76-3.793-3.8-3.793l-119.145.27-.135 19.64z" fill="#f6977c"/><path d="M139.785 273.738h20.174v-19.64h-31.005l3.385 13.68c.812 3.52 3.926 5.96 7.446 5.96z" fill="#f7a58d"/><path d="M91.585 202.084c4.603.136 13.54 1.084 13.54 4.335s-7.853 4.334-14.217 4.334-7.04-3.522-7.582-5.012c-.406-1.5-.812-3.792 8.26-3.657z" fill="#f6977c"/><path d="M91.992 205.606c-2.166 0-4.468-.678-5.55-1.76.812-.407 2.03-.813 3.926-.813 3.52 0 9.207.406 12.185 1.76-.406.27-1.5.813-3.25.813h-7.3zm9.07 2.574c.813 0 1.22.136 1.354.27-2.437 1.084-6.905 1.5-9.07 1.5-3.114 0-5.28 0-5.957-.677.54-.406 1.76-1.084 2.98-1.084 1.625.136 9.613 0 10.696 0z" fill="#f47b58"/><path d="M159.96 247.866v6.23l119-.27.406-6.23-119.416.27z" fill="#f58a6b"/><path d="M211.273 220.505v25.87l39.94-.136v-25.87c0-3.115-2.843-5.553-6.363-5.553H217.5c-3.384.135-6.228 2.71-6.228 5.69z" fill="#f16036" opacity=".2"/><path d="M264.617 245.428h8.395c2.166 0 4.06-1.76 4.06-4.064v-4.198c0-2.168-1.76-4.064-4.06-4.064h-8.395c-2.166 0-4.06 1.76-4.06 4.064v4.198c0 2.303 1.895 4.064 4.06 4.064zm-79.477.272h8.394c2.166 0 4.062-1.76 4.062-4.063v-4.2c0-2.167-1.76-4.064-4.062-4.064h-8.394c-2.166 0-4.062 1.76-4.062 4.064v4.2c0 2.167 1.76 4.063 4.062 4.063z" fill="#fff"/><path d="M130.984 173.775c0 .542.406.948.813 1.084 5.28.54 10.83.54 16.518-.136.677-.135 1.083-.542 1.083-1.22.406-10.836.406-21.4 0-31.425 0-.677-.542-1.083-1.083-1.22-5.822-.677-11.644-.677-17.737 0-.54.136-.948.678-.948 1.22-.406 10.16.136 20.724 1.354 31.696z" fill="#f7a58d"/><path d="M151.97 183.392a1.02 1.02 0 00.948-.677c.27-.542 0-1.22-.542-1.5l-9.207-4.47c-1.354-.677-2.3-2.167-2.3-3.657l-.136-34c0-.135.136-.135.136-.135h5.686c.677 0 1.083-.542 1.083-1.084 0-.677-.54-1.083-1.083-1.083h-5.686a2.427 2.427 0 00-2.437 2.438l.135 33.998a6.322 6.322 0 003.52 5.69l9.207 4.47h.677z" fill="#f69276"/><path d="M214.065 275.34l38.316-.083-.025-11.513-38.316.083.025 11.513z" fill="#f8b4a0"/><path opacity=".6" d="M146.836 118.243c8.394 19.234 14.622 36.978 20.58 61.765l110.75-.27c-6.363-23.297-22.475-48.085-29.11-57.16l-5.687-7.856-94.503.27c-1.625.135-2.708 1.76-2.03 3.25z" fill="url(#F)"/><path d="M566.91 381.428H458.48v83.727h108.43v-83.727z" fill="#8c5e5e"/><path d="M567.087 381.428H527.6v83.727h39.477v-83.727z" fill="#694646"/><path d="M553.577 381.428H543.4v11.585h10.177v-11.585zm-58.25 0H485.15v11.585h10.176v-11.585z" fill="#a3774a"/><path d="M495.806 381.428h-108.43v83.727h108.43v-83.727z" fill="#f7a58d"/><path d="M495.98 381.428h-39.476v83.727h39.476v-83.727z" fill="#f58a6b"/><path d="M482.47 381.428h-10.176v11.585h10.176v-11.585zm-58.25 0h-10.176v11.585h10.176v-11.585z" fill="#fff"/><path d="M523.458 300.154H415.03v83.727h108.43v-83.727z" fill="#f7a58d"/><path d="M523.633 300.154h-39.477v83.727h39.477v-83.727z" fill="#f58a6b"/><path d="M510.124 300.154h-10.177v11.585h10.177v-11.585zm-58.252 0h-10.176v11.585h10.176v-11.585z" fill="#fff"/></g><path d="M348.506 44.817h17.505l2.37-10.58s-6.93 4.014-8.57 1.277-1.276-1.642-2.917-1.277-1.64-1.824-3.647-.547c-2.19 1.46-5.47 8.392-4.74 11.128z" fill="#6b1912"/><path d="M310.012 182.23l17.326-26.19 24.982 7.253c-.967 7.736-17.058 30.892-24.982 41.502l-17.326-22.564z" fill="url(#G)"/><path d="M312.43 172.754c8.506-38.694 25.228-65.21 25.228-65.21 9.413 2.066 12.865 34.98 12.865 34.98-1.996 11.494-8.053 41.37-12.865 52.393l-25.228-22.16z" fill="url(#H)"/><path d="M337.564 107.114l3.647 121.863s24.8 12.588 74.217 3.83c0 0 .182-30.283 6.93-57.1 0 0 12.582-50.534 6.2-65.31 0 0-40.3-24.993-90.993-3.283z" fill="url(#I)"/><path d="M375.858 87.12l-.365 13.062s3.1 4.56 10.576 5.108c7.476.365 11.123-3.83 11.123-3.83l.73-19.447c-9.3 4.013-18.417 5.655-22.064 5.108z" fill="url(#J)"/><path d="M376.587 81.756l-.73 14.412c3.647.547 12.765-1.095 21.882-5.108l.547-9.304h-21.7z" fill="url(#K)" style="mix-blend-mode:multiply"/><path d="M426.004 138.856s-10.758 24.264-14.588 35.2c-3.83 10.763-3.83 53.634-23.888 61.843 0 0 21.335-1.277 28.082-3.1 0 0 .365-32.3 6.93-57.1l6.382-37.945-2.918 1.094z" fill="#ee4d47" fill-opacity=".3" style="mix-blend-mode:multiply"/><path d="M411.78 50.013c-.364.182-.73 6.02-.73 6.02l-1.46 12.223-6.747 5.3-3.83 1.642s-5.653-2.372-4.924-4.56c.73-2.007 4.377-30.83 5.106-30.83s6.565 4.196 6.565 4.196l6.017 6.02zm-53.43-10.946c-1.64 0 .912 20.067.912 20.067l2.918-8.027 2.006-9.67-5.836-2.372z" fill="#402b2b"/><path d="M361.088 43.08l-3.1 25.723s-1.094 21.71 16.776 22.986c17.87 1.095 30.088-16.6 30.088-16.6s2.19 2.554 4.56-1.824c2.188-4.378.73-10.216-2.37-10.763-3.283-.365-4.742 1.46-5.106 4.196s-.73 4.743-.73 4.743l-2.735-.365 2.006-21.162s-4.194-8.21-8.935-9.85-8.935 4.926-8.935 4.926-4.377.912-8.57 0-6.93-2.007-6.93-2.007-2.553.73-6.018 0z" fill="url(#L)"/><path d="M374.035 81.938c6.017.365 6.93-6.568 6.93-6.568l-14.223-1.824s-1.094 7.844 7.294 8.392z" fill="#893d43"/><path d="M380.417 77.56c.547-1.277.73-2.19.73-2.19l-14.223-1.824s-.182.912 0 2.372l13.494 1.642z" fill="#fffeff"/><path d="M379.868 36.513V17.905c11.124.547 22.612 2.737 28.265 9.67 6.747 8.21 2.917 27.182 2.917 27.182s-8.205-.912-9.664-3.65-15.318-6.568-25.894-6.02-15.682-.547-20.97-5.108c-1.094-.912-2.006-2.19-2.736-3.65h28.082v.183z" fill="#402b2b"/><path d="M412.328 47.824s-7.84-2.554-20.97-3.65c-22.064-9.304-31.547-7.662-31.547-7.662s.183-7.115 2.188-12.04 15.5-11.858 26.806-10.763 22.976 9.486 24.8 17.513c1.46 6.203-1.277 16.6-1.277 16.6z" fill="url(#M)"/><path d="M399.018 45.087c-2.37-11.31-19.33-16.966-31.365-16.784-11.853.182-20.24 10.034-21.517 16.784-.547 2.736 1.64 3.1 2.37.73.547-1.642 1.64-9.486 12.583-8.574s10.394 10.763 15.864 11.676c5.106.912 10.94-2.736 22.065-3.83z" fill="url(#N)"/><path d="M362.364 47.64v-1.277c.547 0 4.74-.547 9.847.547l-.182 2.007c-4.194-1.277-9.665-1.277-9.665-1.277zm30.816 4.562c-3.283-1.824-9.482-2.736-9.482-2.92l.73-1.824c.182 0 5.835 1.095 9.482 3.466l-.73 1.277z" fill="#402b2b"/><path d="M374.947 58.405s-.547 3.83-2.006 4.926-4.01 2.007-4.376 2.92c-.365.73.365 2.19 2.006 2.736s1.823 1.095 1.823 1.095-3.282.365-4.923-1.642.182-3.65 1.823-4.56l3.1-1.824c.912-.547 2.553-3.65 2.553-3.65z" fill="#d87c60"/><path d="M382.788 60.4c0 1.824 1.276 3.466 2.917 3.466s2.918-1.46 2.918-3.466c0-1.824-1.276-3.466-2.918-3.466s-2.917 1.46-2.917 3.466zm-20.058-2.37c0 1.824 1.277 3.466 2.918 3.466s2.917-1.46 2.917-3.466c0-1.824-1.276-3.466-2.917-3.466-1.64.182-2.918 1.642-2.918 3.466z" fill="#402b2b"/><path d="M274.316 138.174a2.91 2.91 0 011.19-3.937 2.91 2.91 0 013.938 1.19l9.617 17.945-5.128 2.748-9.617-17.946z" fill="#fff"/><path d="M276.172 141.554l5.082-2.724 10.99 20.5-5.082 2.724-10.99-20.5z" fill="#822626"/><path d="M350.71 193.706c-2.256-4.513-1.746-8.058-1.21-9.267 2.284 1.343 7.012 4.754 7.656 7.656s-.806 6.58-1.612 8.058c-.67-.268-2.578-1.934-4.835-6.447z" fill="url(#O)"/><path d="M253.91 162.23c-.944-3.203 1.457-6.413 4.796-6.413h61.298a5 5 0 014.796 3.587l22.827 77.48c.944 3.203-1.457 6.413-4.796 6.413h-61.298a5 5 0 01-4.796-3.587l-22.827-77.48z" fill="#fff"/><path d="M252.66 158.278c-.84-3.172 1.553-6.278 4.834-6.278h61.38a5 5 0 014.834 3.722l23.13 87.48c.84 3.172-1.553 6.278-4.834 6.278h-61.38a5 5 0 01-4.834-3.722l-23.13-87.48z" fill="url(#P)"/><path fill-rule="evenodd" d="M416.34 191.944c13.312-19.338 15.136-77.898 15.136-77.898-12.25 1.593-18.1 13.718-21.857 21.506-1.837 3.807-3.174 6.578-4.514 6.578l-5.64 35.862-56.41 10.073-.14.194c-2.777.072-12.422.616-18.72 4.627 0 0-3.262 2.446-1.387 4.16.897.98.61 2.04.325 3.1s-.57 2.12.326 3.1c.756.827.875 1.68.99 2.523.16 1.153.315 2.28 2.107 3.27 0 0-.327 2.6 2.038 3.672l.34.153c2.498 1.125 7.37 3.32 8.305 2.463.35-.322 1.227-.958 2.2-1.672 1.757-1.277 3.855-2.8 3.908-3.22.082-.653-.08-1.795-2.202-1.96 0 0 2.04-.407 4.16-1.874 2.203-1.304 4.57-4.73 4.57-4.73l2.145-4.9c52.266 4.455 64.313-5.03 64.313-5.03z" fill="url(#Q)"/><path d="M401.023 140.863l-6.394 33.567-45.13 10.01c2.15 1.88 6.367 7.575 6.044 15.31 13.97 2.015 45.37 4.1 59.232-3.626 2.528-1.97 8.203-9.07 10.682-21.694 16.23-55.823 3.1-64.033 3.1-64.033-18.235 2.372-27.535 30.466-27.535 30.466z" fill="url(#R)"/><path d="M242.567 320.843a64.766 64.766 0 00-6.53-17.46 39.85 39.85 0 00-1.347-2.292 67.222 67.222 0 00-12.587-15.303c-.606-.607-1.28-1.147-1.952-1.686a65.115 65.115 0 00-17.703-10.517c-.808-.337-1.616-.606-2.424-.876-6.462-2.292-13.462-3.573-20.665-3.708h-2.557c-7.27.135-14.203 1.416-20.665 3.708-.808.27-1.616.607-2.424.876a65.145 65.145 0 00-17.703 10.517c-.673.54-1.346 1.146-1.952 1.686-4.914 4.45-9.222 9.573-12.587 15.303-.472.74-.875 1.55-1.347 2.292a64.891 64.891 0 00-6.53 17.46c-.202.876-.337 1.753-.538 2.63-.674 3.775-1 7.618-1 11.528h132c0-3.9-.337-7.82-1-11.528-.134-.876-.27-1.753-.47-2.63z" fill="#fcddd4"/><path d="M324.154 354.41a80.236 80.236 0 00-8.162-21.694 50.81 50.81 0 00-1.683-2.848c-4.29-7.12-9.592-13.485-15.734-19.013-.757-.754-1.6-1.424-2.44-2.094a81.503 81.503 0 00-22.13-13.066c-1-.42-2.02-.754-3.03-1.09-8.078-2.848-16.828-4.44-25.83-4.607h-3.198c-9.087.168-17.753 1.76-25.83 4.607-1 .335-2.02.754-3.03 1.09a81.534 81.534 0 00-22.13 13.066c-.84.67-1.683 1.424-2.44 2.094-6.142 5.528-11.527 11.894-15.734 19.013-.59.922-1.094 1.927-1.683 2.848a80.19 80.19 0 00-8.162 21.694c-.252 1.088-.42 2.177-.673 3.266a81.09 81.09 0 00-1.262 14.323h165c0-4.858-.42-9.716-1.262-14.323-.17-1.09-.337-2.178-.59-3.266z" fill="#fff"/><path d="M344.426 338.03c-10.97 0-15.083-9.602-15.083-22.976s-3.77-24.35-18.5-25.035c-19.196-.685-17.482 17.833-17.482 40.467 0 28.806-10.284 10.288-24.68 26.406-12.34 13.717 3.428 38.066 8.227 45.267h62.044l13.026-24.348c13.026-24.006 3.428-39.78-7.54-39.78z" fill="#f37753"/><path opacity=".2" fill-rule="evenodd" d="M314.946 342.487h-3.085v43.008l-12.96-17.286-2.468 1.852 15.427 20.578v11.52h3.085v-32.494l13.072-16.22-2.4-1.938-10.67 13.24v-22.26z" fill="#fff"/><path fill="#fcddd4" d="M264.053 402h90v50h-90z"/><defs><linearGradient id="B" x1="282" y1="217.584" x2="282" y2="415.302" xlink:href="#S"><stop stop-color="#f37753"/><stop offset="1" stop-color="#fff" stop-opacity="0"/></linearGradient><linearGradient id="C" x1="338.386" y1="460.571" x2="338.386" y2="488.281" xlink:href="#S"><stop stop-color="#f4a984"/><stop offset="1" stop-color="#ee4d47"/></linearGradient><linearGradient id="D" x1="431.202" y1="450.593" x2="431.202" y2="488.416" xlink:href="#S"><stop stop-color="#f4a984"/><stop offset="1" stop-color="#ee4d47"/></linearGradient><linearGradient id="E" x1="400.206" y1="160.694" x2="400.206" y2="468.345" xlink:href="#S"><stop stop-color="#822626"/><stop offset=".943" stop-color="#402b2b"/></linearGradient><linearGradient id="F" x1="198.5" y1="94" x2="251.5" y2="221" xlink:href="#S"><stop stop-color="#f7a58d"/><stop offset=".926" stop-color="#fff"/></linearGradient><linearGradient id="G" x1="329.852" y1="156.039" x2="329.852" y2="204.011" xlink:href="#S"><stop stop-color="#ffb3b6"/><stop offset="1" stop-color="#ffc8c1"/></linearGradient><linearGradient id="H" x1="319.28" y1="201.765" x2="346.679" y2="116.342" xlink:href="#S"><stop stop-color="#f4a984"/><stop offset="1" stop-color="#ee4d47"/></linearGradient><linearGradient id="I" x1="383.964" y1="45.829" x2="383.964" y2="231.179" xlink:href="#S"><stop stop-color="#f4a984"/><stop offset="1" stop-color="#ee4d47"/></linearGradient><linearGradient id="J" x1="394.18" y1="99.24" x2="375.727" y2="107.199" xlink:href="#S"><stop stop-color="#ffb3b6"/><stop offset="1" stop-color="#ffc8c1"/></linearGradient><linearGradient id="K" x1="394.545" y1="90.087" x2="375.988" y2="97.946" xlink:href="#S"><stop stop-color="#ffb3b6" stop-opacity=".3"/><stop offset="1" stop-color="#ffc8c1"/></linearGradient><linearGradient id="L" x1="355.612" y1="85.543" x2="359.559" y2="50.273" xlink:href="#S"><stop stop-color="#ffb3b6"/><stop offset="1" stop-color="#ffc8c1"/></linearGradient><linearGradient id="M" x1="386.922" y1="-4.788" x2="386.922" y2="48.255" xlink:href="#S"><stop stop-color="#f4a984"/><stop offset="1" stop-color="#ee4d47"/></linearGradient><linearGradient id="N" x1="388.309" y1="23.047" x2="388.309" y2="78.191" xlink:href="#S"><stop stop-color="#f4a984"/><stop offset="1" stop-color="#ee4d47"/></linearGradient><linearGradient id="O" x1="356.753" y1="185.245" x2="337.977" y2="192.679" xlink:href="#S"><stop stop-color="#f4a984"/><stop offset="1" stop-color="#ee4d47"/></linearGradient><linearGradient id="P" x1="348" y1="201" x2="170" y2="235" xlink:href="#S"><stop stop-color="#f58a6b"/><stop offset="1" stop-color="#f7a58d"/></linearGradient><linearGradient id="Q" x1="413.518" y1="164.845" x2="318.985" y2="196.356" xlink:href="#S"><stop stop-color="#ffb3b6"/><stop offset="1" stop-color="#ffc8c1"/></linearGradient><linearGradient id="R" x1="380.929" y1="151.398" x2="436.004" y2="188.557" xlink:href="#S"><stop stop-color="#f4a984"/><stop offset="1" stop-color="#ee4d47"/></linearGradient><linearGradient id="S" gradientUnits="userSpaceOnUse"/></defs></svg>