<svg xmlns="http://www.w3.org/2000/svg" xmlns:xlink="http://www.w3.org/1999/xlink" width="708" height="498" fill="none"><path d="M649.64 381.85c65.46-71.41 89.264-215.72 0-235.556-132.364-29.415-66.948 74.386-391.767 19.836-201.244-33.796-185.965 166.128-74.386 277.708s384.328 27.275 466.153-61.988z" fill="#fcddd4"/><mask id="a" maskUnits="userSpaceOnUse" x="102" y="140" width="606" height="358"><path d="M649.64 381.85c65.46-71.41 89.264-215.718 0-235.555-132.364-29.415-66.948 74.385-391.767 19.836-201.244-33.796-185.965 166.128-74.386 277.707s384.328 27.275 466.153-61.988z" fill="#fcddd4"/></mask><g mask="url(#a)"><path opacity=".7" d="M59.5 349.02c32.463-42.212 118.445-124.527 202.674-116.084 105.285 10.553-94.757 208.424 0 208.424s139.502-242.722 207.938-242.722-76.332 179.403 0 189.956 139.502-253.275 223.73-255.913-86.86 216.34 50.01 216.34" stroke="url(#B)" stroke-width="2"/><path d="M782.975 446.86c0 27.53-15.846 49.774-35.334 49.774h-35.334c-19.488 0-35.152-22.426-35.152-49.774 0-27.53 15.846-49.775 35.334-49.775h35.152c19.67 0 35.334 22.426 35.334 49.775z" fill="#402b2b"/><path d="M506.135 446.314c0 27.53-15.846 49.774-35.334 49.774h-35.334c-19.488 0-35.15-22.426-35.15-49.774 0-27.53 15.845-49.775 35.333-49.775h35.15c19.67 0 35.334 22.244 35.334 49.775z" fill="#f48767"/><path d="M785.34 442.12l-142.246-.365 16.392-9.663 107.64.182 18.213 9.846z" fill="#402b2b"/><path d="M919.573 360.987l-.182 91.344-115.472-.182-36.79-19.873-107.64-.183-33.15 19.69-234.95-.547a6.92 6.92 0 01-6.92-6.928l.182-84.416 534.924 1.094z" fill="#f36f49"/><path d="M667.864 381.77l-184.32-.364.365-167.19c0-6.746 5.464-12.216 12.385-12.216l172.115.365-.546 179.406z" fill="#f48767"/><path d="M955.27 382.5l-287.224-.547.364-179.407 275.02.547c6.74 0 12.203 5.47 12.203 12.398l-.364 167.01z" fill="#f06a5b"/><g fill="#f48767"><path d="M529.446 446.314c0 27.53 15.663 49.774 35.15 49.774h35.152v-16.774c12.93 0 23.495-14.768 23.495-33s-10.38-33-23.313-33V396.54h-35.15c-19.488.183-35.15 22.426-35.333 49.775z"/><path d="M628.888 446.68c0 22.608-12.932 40.84-28.96 40.658-16.028 0-28.777-18.232-28.777-40.84s12.93-40.84 28.96-40.658c15.845 0 28.777 18.232 28.777 40.84z"/></g><path d="M599.932 473.48c-10.564 0-18.942-12.034-18.942-26.984s8.56-26.802 19.124-26.802 18.942 12.033 18.942 26.984-8.56 26.802-19.124 26.802zm0-42.846c-6.193 0-11.293 7.1-11.293 15.862s5.1 16.044 11.293 16.044 11.292-7.1 11.292-15.862c0-8.934-4.918-16.044-11.292-16.044zm-.002 65.636c-19.488 0-35.152-22.426-35.152-49.775s15.846-49.774 35.334-49.774 35.152 22.426 35.152 49.774-16.028 49.957-35.334 49.775zm.182-90.433c-16.028 0-28.96 18.232-28.96 40.658 0 22.608 12.75 40.84 28.777 40.84s28.96-18.233 28.96-40.66c0-22.608-12.93-40.84-28.777-40.84z" fill="#f7a58d"/><path d="M604.848 446.496c0-3.83-2.186-6.746-4.736-6.746s-4.735 3.1-4.917 6.746c0 3.83 2.185 6.746 4.735 6.746 2.732.183 4.918-2.917 4.918-6.746z" fill="#5b2929"/><g fill="#f69276"><path d="M361.52 310.12c0 .73-.546 1.276-1.093 1.458-1.457.365-6.92.365-8.56-.182-.73-.182-1.457-.73-1.457-1.64-.546-14.586-.546-28.807 0-42.3 0-.912.728-1.46 1.457-1.64 1.82-.547 8.196-.912 10.2-.182.73.182 1.275.91 1.275 1.64a312.647 312.647 0 01-1.82 42.846z"/><path d="M370.443 323.063c-.182 0-.364 0-.73-.182l-12.385-6.2c-2.914-1.46-4.735-4.376-4.735-7.658l.182-45.763a3.267 3.267 0 013.278-3.282h34.06c.91 0 1.457.73 1.457 1.46 0 .91-.728 1.458-1.457 1.458h-34.06c-.182 0-.182.182-.182.182l-.182 45.764c0 2.188 1.275 4.01 3.096 4.923l12.385 6.2c.73.364 1.093 1.276.73 2.005-.364.912-.91 1.094-1.457 1.094z"/></g><path d="M643.095 381.406h-40.98c-21.674 0-26.773 10.757-40.07 37.194l-42.073-.182v-8.387l-160.64-.364c-.728-13.3-2.186-40.294-2.186-65.82v-2.553c0-7.293 1.275-15.315 3.46-23.337 8.56-31.36 30.234-64.725 39.16-76.94l7.65-10.575c6.193-8.204 10.382-12.398 18.213-12.398l194.7.547c4.007 0 7.65 2.735 8.743 6.564 16.756 61.625 14.206 108.482 14.024 156.25zM478.993 240.288c.182-.912-.546-1.64-1.457-1.64l-59.193-.183c-3.46 0-6.92 1.824-9.107 4.923-23.13 31.542-32.42 60.35-35.88 76.94l-3.642 17.503c-.547 2.552 1.092 4.558 3.642 4.558h14.39c2.368 0 4.917-1.094 6.74-2.917l29.505-28.26c3.28-3.1 7.65-4.923 11.84-4.923h35.334l7.83-66z" fill="#f36f49"/><path d="M509.594 318.505l-4.007 18.233c-.91 4.376-4.736 7.475-9.107 7.658-57.554 2.005-105.273 2.187-139.33-.365v-2.553c0-7.293 1.275-15.315 3.46-23.337l148.985.364z" fill="#f6977c"/><path d="M615.96 238.83l-59.193-.183c-3.46 0-6.557 1.823-8.196 4.923-16.574 31.542-20.034 60.35-20.034 76.94v17.503a4.51 4.51 0 004.553 4.558h14.388c2.368 0 4.736-1.094 6.193-2.917l23.677-28.26c2.732-3.1 6.557-5.106 10.746-4.923h35.334l-5.646-66.002c0-.91-.73-1.64-1.822-1.64z" fill="#f36f49"/><path d="M643.095 381.406h-40.98c-21.674 0-26.773 10.757-40.07 37.194l-42.073-.182v-8.387l-160.64-.364c-.728-13.3-2.186-40.294-2.186-65.82 34.06 2.552 81.96 2.552 139.332.364 4.37-.182 8.196-3.282 9.107-7.657 1.275-6.382 2.732-12.58 4.007-18.233 7.83-33.365 16.392-57.25 27.684-83.14.9-2.006-.547-4.376-2.732-4.376l-127.13-.365c6.193-8.204 10.382-12.398 18.213-12.398l194.7.547c4.007 0 7.65 2.735 8.743 6.564 16.756 61.625 14.206 108.482 14.024 156.25zm-19.488-74.935l-5.646-66c0-.912-.91-1.64-1.822-1.64l-59.193-.182c-3.46 0-6.557 1.823-8.196 4.923-16.574 31.542-20.034 60.35-20.034 76.94v17.503a4.51 4.51 0 004.553 4.558h14.388c2.368 0 4.736-1.094 6.193-2.917l23.677-28.26c2.732-3.1 6.557-5.105 10.746-4.923h35.334z" fill="#f7a58d"/><path d="M635.994 376.666c0 2.735-2.186 4.74-4.918 4.74h-28.96c-21.674 0-26.773 10.757-40.07 37.194l-42.073-.182v-8.387l.182-73.84c0-36.648 6.557-59.803 23.86-96.45 2.55-5.47 8.196-8.934 14.206-8.934l62.654.183a2.95 2.95 0 012.914 2.188c12.385 47.04 12.385 123.615 12.203 143.488zm-12.385-70.194l-5.646-66c0-.912-.91-1.64-1.82-1.64l-59.194-.183c-3.46 0-6.556 1.824-8.196 4.923-16.574 31.542-20.034 60.35-20.034 76.94v17.503a4.51 4.51 0 004.553 4.558h14.39c2.367 0 4.735-1.094 6.192-2.917l23.677-28.26c2.732-3.1 6.557-5.105 10.746-4.922h35.334z" fill="#f58a6b"/><path d="M615.595 241.017l-58.83-.182c-2.55 0-4.917 1.46-6.192 3.647-17.12 32.636-19.853 61.625-19.853 75.846v17.503c0 1.277 1.093 2.37 2.368 2.37h14.388c1.822 0 3.46-.73 4.554-2.006l23.677-28.26a16.467 16.467 0 0112.567-5.834h32.784l-5.464-63.085zm.364-2.187c.91 0 1.822.73 1.822 1.64l5.646 66.002h-35.334c-4.19 0-8.014 1.823-10.746 4.923l-23.677 28.26c-1.457 1.823-3.825 2.917-6.193 2.917H533.09a4.51 4.51 0 01-4.553-4.558V320.51c0-16.592 3.46-45.4 20.034-76.94 1.64-3.1 4.736-4.923 8.196-4.923l59.193.183z" fill="#f7a58d"/><path d="M520.155 375.208v34.823l-63.564-.182c.728-9.116 2.368-17.868 5.1-26.072 1.092-3.282 3.824-5.652 7.285-6.2 14.024-1.64 31.873-2.37 51.18-2.37zM391.57 409.85h-31.5c-.547-7.657-1.093-20.056-1.64-34.094a225.14 225.14 0 0121.128 2.005c3.46.547 6.192 2.917 7.285 6.2 2.55 8.022 4.007 16.774 4.735 25.9zm128.404 35.188l-147.346-.365c-10.017 0-18.213-8.204-18.213-18.232v-3.1c0-2.917 2.368-5.105 5.1-5.105l160.276.365.183 26.437z" fill="#f6977c"/><path d="M547.112 445.038h-27.138V418.6h41.71l-4.554 18.415c-1.093 4.74-5.282 8.022-10.017 8.022z" fill="#f7a58d"/><path d="M611.952 348.59c-6.193.182-18.214 1.46-18.214 5.834s10.564 5.835 19.124 5.835 9.47-4.74 10.2-6.746c.546-2.006 1.093-5.105-11.1-4.923z" fill="#f6977c"/><path d="M611.405 353.33c2.914 0 6-.9 7.467-2.37-1.093-.547-2.732-1.094-5.282-1.094-4.735 0-12.385.547-16.392 2.37.547.365 2.004 1.094 4.37 1.094h9.836zm-12.205 3.464c-1.093 0-1.64.182-1.82.364 3.278 1.46 9.3 2.006 12.203 2.006 4.2 0 7.103 0 8.014-.912-.73-.547-2.368-1.458-4.007-1.458-2.186.182-12.932 0-14.4 0z" fill="#f47b58"/><path d="M519.974 410.214v8.387l-160.095-.365-.546-8.387 160.64.365z" fill="#f58a6b"/><path d="M450.944 373.384v34.824l-53.73-.182v-34.824c0-4.194 3.825-7.475 8.56-7.475h36.79c4.554.182 8.378 3.646 8.378 7.657z" fill="#f16036" opacity=".2"/><path d="M379.184 406.932h-11.292c-2.914 0-5.464-2.37-5.464-5.47V395.8c0-2.917 2.368-5.47 5.464-5.47h11.292c2.915 0 5.464 2.37 5.464 5.47v5.652c0 3.1-2.55 5.47-5.464 5.47zm106.916.365h-11.292c-2.914 0-5.464-2.37-5.464-5.47v-5.652c0-2.917 2.368-5.47 5.464-5.47H486.1c2.915 0 5.464 2.37 5.464 5.47v5.652c0 2.918-2.367 5.47-5.464 5.47z" fill="#fff"/><path d="M558.95 310.483c0 .73-.546 1.277-1.092 1.46-7.104.73-14.57.73-22.22-.182-.9-.183-1.457-.73-1.457-1.64-.546-14.586-.546-28.807 0-42.3 0-.912.73-1.46 1.457-1.64 7.832-.912 15.664-.912 23.86 0 .728.182 1.275.91 1.275 1.64.546 13.674-.182 27.895-1.822 42.663z" fill="#f7a58d"/><path d="M530.722 323.428a1.37 1.37 0 01-1.275-.91c-.364-.73 0-1.64.73-2.006l12.385-6.016c1.82-.912 3.096-2.918 3.096-4.923l.182-45.764c0-.182-.182-.182-.182-.182h-7.65c-.91 0-1.457-.73-1.457-1.458 0-.912.728-1.46 1.457-1.46h7.65c1.822 0 3.28 1.46 3.28 3.282l-.183 45.763c0 3.282-1.82 6.2-4.735 7.658l-12.385 6.016h-.91z" fill="#f69276"/><path d="M447.19 447.197l-51.543-.112.033-15.498 51.544.112-.034 15.498z" fill="#f8b4a0"/><path opacity=".6" d="M537.628 235.734c-11.293 25.9-19.67 49.775-27.685 83.14l-148.984-.365c8.56-31.36 30.234-64.725 39.158-76.94l7.65-10.575 127.13.365c2.185.182 3.642 2.37 2.732 4.375z" fill="url(#C)"/><path d="M296.305 253.535s-4.206 130.858-.115 277.968c0 0 12.272 11.63 35.524 3.877 0 0-.216-163.695 6.028-228.742 0 0 29.28 123.633 66.31 230.68 0 0 24.76 4.738 33.586-9.262 0 0-49.95-173.388-57.27-273.113l-84.065-1.41z" fill="url(#D)"/><path d="M296.62 254.944h83.75c.646 7.538 1.292 15.508 2.368 23.693-49.948.215-76.43-12.493-86.333-18.308 0-3.662.215-5.385.215-5.385z" fill="#402b2b" fill-opacity=".45" style="mix-blend-mode:multiply"/></g><path d="M305.02 38.045h20.668l2.8-12.493s-8.18 4.74-10.12 1.508-1.507-1.938-3.444-1.508-1.938-2.154-4.306-.646c-2.584 1.723-6.46 9.908-5.598 13.14z" fill="#6b1912"/><path d="M264.632 194.023l11.778-28.515 33.118 12.414c-1.142 9.134-21.34 26.64-33.118 39.037l-11.778-22.936z" fill="url(#E)"/><path d="M292.216 110.923s-18.135 32.89-28.764 81.242c-3.27 14.878-2.48 22.564 2.48 26.036 6.2 4.34 17.355.62 22.934-11.158 5.68-13.017 16.182-41.25 18.538-54.82 0 0-4.076-38.86-15.188-41.3z" fill="url(#F)"/><path d="M292.104 110.415l4.306 143.88s29.28 14.86 87.625 4.523c0 0 .216-35.755 8.18-67.417 0 0 14.856-59.663 7.32-77.11 0 0-47.58-29.51-107.432-3.877z" fill="url(#G)"/><path d="M337.315 86.808l-.43 15.422s3.66 5.385 12.487 6.03c8.827.43 13.133-4.523 13.133-4.523l.86-22.96c-10.98 4.74-21.744 6.677-26.05 6.03z" fill="url(#H)"/><path d="M338.177 80.476l-.86 17.016c4.306.646 15.07-1.292 25.835-6.03l.646-10.985h-25.62z" fill="url(#I)" style="mix-blend-mode:multiply"/><path d="M396.522 147.892s-12.702 28.647-17.224 41.57c-4.52 12.708-4.52 63.324-28.203 73.017 0 0 25.19-1.508 33.155-3.662 0 0 .43-38.124 8.18-67.417l7.536-44.8-3.445 1.292z" fill="#ee4d47" fill-opacity=".3" style="mix-blend-mode:multiply"/><path d="M379.73 43c-.43.215-.86 7.108-.86 7.108l-1.722 14.43-7.966 6.246-4.52 1.94s-6.674-2.8-5.813-5.385c.86-2.37 5.167-36.4 6.028-36.4s7.75 4.954 7.75 4.954L379.73 43zm-63.08-12.925c-1.938 0 1.076 23.693 1.076 23.693l3.445-9.477 2.368-11.416-6.9-2.8z" fill="#402b2b"/><path d="M319.878 34.813l-3.66 30.37s-1.292 25.63 19.807 27.14c21.1 1.292 35.524-19.6 35.524-19.6s2.583 3.015 5.382-2.154c2.583-5.17.86-12.062-2.8-12.708-3.875-.43-5.598 1.723-6.028 4.954s-.86 5.6-.86 5.6l-3.23-.43L366.381 43s-4.95-9.693-10.55-11.63-10.55 5.816-10.55 5.816-5.167 1.077-10.12 0-8.18-2.37-8.18-2.37-3.015.86-7.105 0z" fill="url(#J)"/><path d="M335.977 210.76s-32.853-4.96-32.853-9.918 6.818-16.737 11.777-30.374 9.3-35.333 11.158-39.673-5.58 8.06-5.58 8.06c-12.19 15.9-37.07 48.847-39.052 53.3s-2.893 15.084-3.1 19.836l8.68 4.96 25.415-3.1 23.555-3.1z" fill="#ee4d47" fill-opacity=".3" style="mix-blend-mode:multiply"/><path d="M325.38 79.346c0-2.48 2.527-6.186 6.82-4.96 4.34 1.24 5.372 4.96 5.58 7.44" stroke="#893d43"/><path d="M319.182 115.3s-53.93 69.446-55.17 80.585-2.142 22.125 9.13 23.48 21.977-16.4 25.922-25.433l8.96-22.844 18.596-45.25-7.438-10.538z" fill="url(#K)"/><path d="M326.68 130.175c0-6.2-7.44-8.678-13.638-8.678l-38.432 53.3c-7.852 10.95-21.324 36.2-7.44 44.632s29.34-13.018 34.714-24.176c2.975-6.943 17.77-46.285 24.795-65.088z" fill="url(#L)"/><path d="M319.24 116.538s-3.788-14.722.236-24.3c0 0 2.196-4.284 4.564-2.443 2.637 1.698 4.71-2.174 7.346-.477s4.746-.813 7.36 2.452c0 0 2.973-.9 4.68 1.64s5.614 8.222 4.765 9.54-3.73 7.87-4.475 8.094-2.104.263-2.718-2.172c0 0-.067 2.454-1.352 5.214-1.08 2.822-4.594 6.257-4.594 6.257l-8.992 6.113-6.818-9.917z" fill="url(#M)"/><path d="M342.05 27.06V5.1c13.133.646 26.697 3.23 33.37 11.416 7.966 9.692 3.445 32.093 3.445 32.093s-9.69-1.077-11.41-4.308-18.085-7.754-30.572-7.108-18.515-.646-24.76-6.03c-1.292-1.077-2.368-2.585-3.23-4.308h33.155v.215z" fill="#402b2b"/><path d="M380.374 40.414s-9.258-3.015-24.76-4.308c-26.05-10.985-37.246-9.046-37.246-9.046s.215-8.4 2.583-14.216 18.3-14 31.65-12.708 27.127 11.2 29.28 20.677c1.722 7.323-1.507 19.6-1.507 19.6z" fill="url(#N)"/><path d="M364.658 37.186c-2.8-13.354-22.82-20.03-37.03-19.816-13.994.215-23.897 11.846-25.404 19.816-.646 3.23 1.937 3.662 2.8.86.645-1.938 1.937-11.2 14.855-10.123s12.272 12.708 18.73 13.785c6.028 1.077 12.917-3.23 26.05-4.523z" fill="url(#O)"/><path d="M320.543 45.1l-.67-1.35c.58-.287 4.726-3.07 10.7-4.594l.862 2.218c-5.106.853-10.9 3.727-10.9 3.727zm36.65 5.667c-2.58-3.606-8.734-7.713-8.642-7.907l1.7-1.578c.194.092 5.673 4.117 8.365 8.5l-1.424.994z" fill="#402b2b"/><path d="M336.24 52.907s-.646 4.523-2.368 5.816-4.737 2.37-5.167 3.446c-.43.862.43 2.585 2.368 3.23s2.153 1.292 2.153 1.292-3.875.43-5.813-1.94.215-4.308 2.153-5.385l3.66-2.154c1.077-.646 3.014-4.308 3.014-4.308z" fill="#d87c60"/><path d="M345.496 55.274c0 2.154 1.507 4.092 3.445 4.092s3.445-1.723 3.445-4.092c0-2.154-1.507-4.092-3.445-4.092s-3.445 1.723-3.445 4.092zm-23.68-2.8c0 2.154 1.507 4.092 3.444 4.092s3.445-1.723 3.445-4.092c0-2.154-1.507-4.092-3.445-4.092-1.937.215-3.444 1.938-3.444 4.092z" fill="#402b2b"/><path d="M310.136 220.68c-1.653-2.687-4.71-10.167-3.72-18.597 2.067 2.893 5.703 10.662 3.72 18.597z" fill="#644545"/><path fill-rule="evenodd" d="M385.11 210.57c15.717-22.832 17.87-91.97 17.87-91.97-14.46 1.88-21.368 16.195-25.805 25.392-2.168 4.494-3.747 7.766-5.33 7.766l-6.66 42.34-66.603 11.893-.165.23c-3.28.086-14.665.728-22.1 5.463 0 0-3.852 2.887-1.638 4.91 1.06 1.157.722 2.41.384 3.66s-.674 2.503.385 3.66c.893.975 1.033 1.985 1.17 2.978.188 1.36.372 2.692 2.487 3.862 0 0-.386 3.082 2.406 4.336l.4.18c2.95 1.328 8.702 3.92 9.805 2.908.415-.38 1.45-1.13 2.6-1.974 2.074-1.507 4.552-3.306 4.614-3.8.096-.77-.096-2.12-2.6-2.314 0 0 2.408-.48 4.912-2.212 2.6-1.54 5.393-5.583 5.393-5.583l2.534-5.788c61.707 5.26 75.93-5.938 75.93-5.938z" fill="url(#P)"/><path d="M367.027 150.263l-6.03 31.662-2.704 7.97-52.07 12.19c1.447 2.686 4.216 10.166 3.72 18.597 11.57 1.24 43.764 1.363 65.088-3.1 5.728-1.1 12.397-6.82 20.845-27.686 19.16-65.91 3.66-75.6 3.66-75.6-21.53 2.8-32.51 35.97-32.51 35.97z" fill="url(#Q)"/><path d="M229.977 178.527s24.7 25.416 4.34 30.995-39.627-10.836-65.662-6.387c-44.632 7.626-117.92 17.544-157.592-56.842C-38.527 53.3 90.9 16.117 156.116 16.117c78.247 0 109.1 33.474 116.54 79.345 5.95 36.697-26.56 71.906-42.678 83.064z" fill="url(#R)"/><path d="M135.914 127.236l1.194-25.578c4.78-1.24 8.77-3.516 11.973-6.827s5.054-7.51 5.557-12.6c.593-5.988-.022-10.785-1.846-14.39-1.813-3.706-4.34-5.72-7.578-6.04-2.845-.282-5.152.498-6.92 2.338-1.67 1.85-3.114 4.428-4.333 7.734l-2.625 6.996c-1.22 3.306-2.982 5.6-5.29 6.883-2.2 1.193-4.462 1.523-6.787.99-2.228-.523-4.087-1.765-5.577-3.726-1.48-2.06-2.064-4.688-1.747-7.882.395-3.992 2.158-7.294 5.29-9.906 3.23-2.603 7.182-4.48 11.854-5.63s9.462-1.482 14.37-.996c9.912.98 17.452 3.894 22.622 8.74 5.267 4.854 7.476 11.573 6.627 20.155-.583 5.888-2.5 10.737-5.75 14.546s-7.262 6.79-12.033 8.937a65.1 65.1 0 01-14.415 4.468l-1.936 12.053-2.65-.263zm-3.408 35.94c-3.533-.35-6.452-1.898-8.756-4.646-2.207-2.737-3.132-5.903-2.777-9.495.346-3.493 1.87-6.365 4.57-8.617 2.81-2.343 5.98-3.34 9.512-2.99 3.63.36 6.496 1.953 8.595 4.78 2.206 2.738 3.137 5.853 2.79 9.346-.356 3.593-1.884 6.515-4.584 8.767-2.602 2.262-5.72 3.213-9.35 2.854z" fill="#fff"/><defs><linearGradient id="B" x1="401.686" y1="205.737" x2="401.686" y2="509.4" xlink:href="#S"><stop stop-color="#f37753"/><stop offset="1" stop-color="#fff" stop-opacity="0"/></linearGradient><linearGradient id="C" x1="468.128" y1="203.103" x2="396.756" y2="374.02" xlink:href="#S"><stop stop-color="#f7a58d"/><stop offset=".926" stop-color="#fff"/></linearGradient><linearGradient id="D" x1="366.058" y1="174.86" x2="366.058" y2="538.091" xlink:href="#S"><stop stop-color="#822626"/><stop offset=".943" stop-color="#402b2b"/></linearGradient><linearGradient id="E" x1="283.001" y1="169.358" x2="283.001" y2="225.997" xlink:href="#S"><stop stop-color="#ffb3b6"/><stop offset="1" stop-color="#ffc8c1"/></linearGradient><linearGradient id="F" x1="307.463" y1="115.92" x2="307.463" y2="227.499" xlink:href="#S"><stop stop-color="#f4a984"/><stop offset="1" stop-color="#ee4d47"/></linearGradient><linearGradient id="G" x1="346.887" y1="38.058" x2="346.887" y2="256.894" xlink:href="#S"><stop stop-color="#f4a984"/><stop offset="1" stop-color="#ee4d47"/></linearGradient><linearGradient id="H" x1="358.947" y1="101.119" x2="337.16" y2="110.516" xlink:href="#S"><stop stop-color="#ffb3b6"/><stop offset="1" stop-color="#ffc8c1"/></linearGradient><linearGradient id="I" x1="359.379" y1="90.313" x2="337.469" y2="99.591" xlink:href="#S"><stop stop-color="#ffb3b6" stop-opacity=".3"/><stop offset="1" stop-color="#ffc8c1"/></linearGradient><linearGradient id="J" x1="313.412" y1="84.947" x2="318.072" y2="43.304" xlink:href="#S"><stop stop-color="#ffb3b6"/><stop offset="1" stop-color="#ffc8c1"/></linearGradient><linearGradient id="K" x1="302.657" y1="90.503" x2="302.657" y2="217.367" xlink:href="#S"><stop stop-color="#ffb3b6"/><stop offset="1" stop-color="#ffc8c1"/></linearGradient><linearGradient id="L" x1="275.848" y1="147.532" x2="322.29" y2="215.753" xlink:href="#S"><stop stop-color="#f4a984"/><stop offset=".917" stop-color="#ee4d47"/></linearGradient><linearGradient id="M" x1="329.5" y1="114" x2="347" y2="84" xlink:href="#S"><stop stop-color="#ffb3b6"/><stop offset="1" stop-color="#ffc8c1"/></linearGradient><linearGradient id="N" x1="350.378" y1="-21.702" x2="350.378" y2="40.924" xlink:href="#S"><stop stop-color="#f4a984"/><stop offset="1" stop-color="#ee4d47"/></linearGradient><linearGradient id="O" x1="352.015" y1="11.164" x2="352.015" y2="76.27" xlink:href="#S"><stop stop-color="#f4a984"/><stop offset="1" stop-color="#ee4d47"/></linearGradient><linearGradient id="P" x1="381.777" y1="178.577" x2="270.166" y2="215.78" xlink:href="#S"><stop stop-color="#ffb3b6"/><stop offset="1" stop-color="#ffc8c1"/></linearGradient><linearGradient id="Q" x1="348.995" y1="153.112" x2="396.107" y2="224.399" xlink:href="#S"><stop stop-color="#f4a984"/><stop offset="1" stop-color="#ee4d47"/></linearGradient><linearGradient id="R" x1="39.673" y1="-106.62" x2="268.334" y2="226.785" xlink:href="#S"><stop stop-color="#f4a984"/><stop offset="1" stop-color="#ee4d47"/></linearGradient><linearGradient id="S" gradientUnits="userSpaceOnUse"/></defs></svg>