<svg xmlns="http://www.w3.org/2000/svg" width="811" height="395" fill="none"><path d="M231.558 327.493c0 36.82 21.205 66.57 47.286 66.57h47.287c26.08 0 47.042-29.994 47.042-66.57 0-36.822-21.205-66.572-47.286-66.572h-47.043c-26.324 0-47.286 29.994-47.286 66.572z" fill="#442b2b"/><path d="M602.05 326.76c0 36.82 21.206 66.57 47.286 66.57h47.287c26.08 0 47.043-29.993 47.043-66.57 0-36.822-21.206-66.572-47.287-66.572h-47.043c-26.324 0-47.286 29.75-47.286 66.572z" fill="#402b2b"/><path d="M0 228.49l14.38-32.19h43.143l.487 121.926-57.767.244L0 228.49z" fill="#000"/><path d="M228.39 321.152l190.364-.487-21.937-12.925-144.053.244-24.374 13.168z" fill="#442b2b"/><path d="M48.75 212.638l.244 122.17 154.534-.244 49.236-26.58 144.054-.244 44.36 26.337 314.43-.732a9.26 9.26 0 009.262-9.266l-.243-112.904-715.88 1.463z" fill="#822626"/><path d="M385.604 240.437l246.67-.487-.487-223.612C631.787 7.316 624.474 0 615.212 0l-230.34.488.73 239.95z" fill="#ef5f53"/><path d="M.975 241.413l384.385-.732-.487-239.95-368.055.732C7.8 1.463.487 8.78.487 18.045l.487 223.368z" fill="#f39476"/><path d="M570.85 326.76c0 36.82-20.962 66.57-47.043 66.57h-47.043v-22.434c-17.306 0-31.443-19.752-31.443-44.137s13.894-44.137 31.2-44.137V260.19h47.042c26.08.244 47.043 29.994 47.287 66.572z" fill="#402b2b"/><path d="M437.766 327.25c0 30.237 17.306 54.622 38.755 54.38 21.45 0 38.512-24.386 38.512-54.623s-17.306-54.623-38.756-54.38c-21.205 0-38.51 24.385-38.51 54.623z" fill="#4b2a2a"/><path opacity=".32" d="M476.52 363.095c14.137 0 25.35-16.094 25.35-36.1s-11.456-35.846-25.593-35.846-25.35 16.094-25.35 36.1 11.456 35.846 25.593 35.846zm0-57.305c8.287 0 15.112 9.5 15.112 21.215s-6.825 21.46-15.112 21.46-15.112-9.51-15.112-21.215c0-11.95 6.58-21.46 15.112-21.46z" fill="#e14841"/><path d="M476.52 393.576c26.08 0 47.043-29.994 47.043-66.57s-21.206-66.572-47.287-66.572-47.043 29.994-47.043 66.572 21.45 66.815 47.287 66.57zm-.244-120.95c21.45 0 38.756 24.385 38.756 54.38 0 30.237-17.063 54.623-38.512 54.623s-38.756-24.386-38.756-54.38c0-30.238 17.306-54.623 38.512-54.623z" fill="#402b2b"/><path opacity=".32" d="M469.94 327.005c0-5.12 2.925-9.023 6.338-9.023s6.337 4.146 6.58 9.023c0 5.12-2.925 9.022-6.337 9.022-3.657.244-6.582-3.9-6.582-9.022z" fill="#e14841"/><path d="M200.114 327.736c0 36.822-20.962 66.572-47.042 66.572H106.03v-22.435c-17.306 0-31.443-19.752-31.443-44.137s13.894-44.137 31.2-44.137v-22.434h47.043c26.08 0 47.286 29.75 47.286 66.57z" fill="#000"/><path d="M795.584 144.604c0 .975.73 1.707 1.462 1.95 1.95.487 9.262.487 11.456-.244.975-.244 1.95-.975 1.95-2.195.73-19.508.73-38.528 0-56.573 0-1.22-.975-1.95-1.95-2.195-2.437-.73-10.968-1.22-13.65-.244-.975.244-1.706 1.22-1.706 2.195-.487 18.533.244 37.553 2.438 57.305z" fill="#cd2827"/><path d="M783.64 161.917c.243 0 .487 0 .975-.243l16.574-8.29c3.9-1.95 6.338-5.853 6.338-10.242l-.244-61.207a4.37 4.37 0 00-4.388-4.389h-45.58c-1.22 0-1.95.975-1.95 1.95 0 1.22.975 1.95 1.95 1.95h45.58c.244 0 .244.244.244.244l.244 61.207c0 2.926-1.706 5.365-4.144 6.584l-16.574 8.29c-.975.488-1.463 1.707-.975 2.682.487 1.22 1.218 1.463 1.95 1.463z" fill="#822626"/><path d="M418.753 239.95h54.843c29.006 0 35.83 14.387 53.624 49.745l56.305-.243v-11.218l214.983-.487c.975-17.8 2.925-53.89 2.925-88.03v-3.414c0-9.754-1.706-20.483-4.63-31.212-11.456-41.943-40.462-86.568-52.405-102.906L734.16 38.04c-8.287-10.973-13.893-16.582-24.374-16.582l-260.563.732c-5.363 0-10.238 3.658-11.7 8.78-22.425 82.422-19.012 145.092-18.77 208.98zM638.368 51.21c-.244-1.22.73-2.195 1.95-2.195l79.217-.244c4.63 0 9.262 2.44 12.187 6.584 30.955 42.186 43.386 80.715 48.018 102.906l4.875 23.41c.73 3.414-1.463 6.097-4.875 6.097h-19.256c-3.17 0-6.58-1.464-9.02-3.902l-39.486-37.797c-4.388-4.145-10.238-6.584-15.844-6.584H648.85l-10.48-88.274z" fill="#cd2827"/><path d="M597.418 155.82l5.362 24.385c1.22 5.853 6.338 9.998 12.188 10.242 77.023 2.682 140.884 2.926 186.464-.488v-3.414c0-9.754-1.706-20.483-4.63-31.213l-199.383.488z" fill="#822626"/><path opacity=".75" d="M455.072 49.258l79.217-.244c4.63 0 8.775 2.438 10.968 6.584 22.18 42.186 26.812 80.715 26.812 102.905v23.4c0 3.414-2.68 6.097-6.093 6.097H546.72c-3.17 0-6.338-1.464-8.288-3.902l-31.686-37.797c-3.657-4.146-8.775-6.828-14.38-6.584h-47.287l7.556-88.274c0-1.22.975-2.195 2.438-2.195z" fill="#402b2b"/><path d="M418.753 239.95h54.843c29.006 0 35.83 14.387 53.624 49.745l56.305-.243v-11.218l214.983-.487c.975-17.8 2.925-53.89 2.925-88.03-45.58 3.414-109.685 3.414-186.465.488-5.85-.244-10.968-4.39-12.187-10.242-1.706-8.534-3.656-16.825-5.363-24.385-10.48-44.625-21.937-76.57-37.05-111.196-1.218-2.682.73-5.853 3.656-5.853l170.134-.488c-8.287-10.973-13.893-16.582-24.374-16.582l-260.563.732c-5.363 0-10.238 3.658-11.7 8.78-22.425 82.422-19.012 145.092-18.77 208.98zm26.08-100.223l7.556-88.274c0-1.22 1.22-2.195 2.438-2.195l79.217-.244a12.24 12.24 0 0110.968 6.584c22.18 42.186 26.812 80.715 26.812 102.905v23.4c0 3.414-2.68 6.096-6.093 6.096h-19.256c-3.17 0-6.338-1.463-8.288-3.9l-31.686-37.797c-3.657-4.146-8.775-6.828-14.38-6.584h-47.287z" fill="url(#A)"/><path d="M428.26 233.6c0 3.657 2.925 6.34 6.58 6.34h38.755c29.006 0 35.83 14.387 53.624 49.745l56.305-.243v-11.218l-.243-98.76c0-49.014-8.775-79.983-31.93-128.998-3.412-7.315-10.968-11.95-19.012-11.95l-83.848.244c-1.95 0-3.413 1.22-3.9 2.926-16.575 62.913-16.575 165.33-16.33 191.91zm16.575-93.883l7.556-88.274c0-1.22 1.218-2.195 2.437-2.195l79.217-.244c4.63 0 8.775 2.44 10.97 6.584 22.18 42.186 26.812 80.715 26.812 102.905v23.4c0 3.414-2.682 6.096-6.094 6.096h-19.256c-3.17 0-6.337-1.463-8.287-3.9l-31.687-37.797c-3.656-4.146-8.775-6.828-14.38-6.584h-47.286z" fill="url(#B)"/><path d="M455.56 52.184l78.73-.244c3.412 0 6.58 1.95 8.287 4.877 22.912 43.65 26.568 82.422 26.568 101.443v23.41a3.23 3.23 0 01-3.168 3.17H546.72c-2.438 0-4.63-.975-6.094-2.682L508.94 144.36c-4.143-4.877-10.237-7.803-16.818-7.803h-43.874l7.312-84.373zm-.487-2.926c-1.22 0-2.438.975-2.438 2.195l-7.556 88.274h47.287c5.606 0 10.724 2.438 14.38 6.584l31.686 37.797c1.95 2.438 5.12 3.902 8.288 3.902h19.256c3.412 0 6.093-2.683 6.093-6.097v-23.4c0-22.2-4.63-60.718-26.812-102.905-2.193-4.145-6.337-6.584-10.968-6.584l-79.217.244z" fill="#822626"/><path opacity=".4" d="M583.28 231.66v46.576l85.067-.244c-.975-12.193-3.168-23.898-6.825-34.87-1.462-4.39-5.118-7.56-9.75-8.29-18.77-2.195-42.656-3.17-68.493-3.17zm172.084 46.332h42.168c.73-10.242 1.462-26.824 2.194-45.6a301.74 301.74 0 00-28.275 2.683c-4.63.73-8.287 3.9-9.75 8.29-3.413 10.73-5.363 22.434-6.338 34.627z" fill="#cd2827"/><path d="M583.525 325.054l197.2-.488c13.406 0 24.374-10.973 24.374-24.385v-4.145c0-3.902-3.168-6.828-6.825-6.828l-214.495.487-.244 35.36z" fill="#ee4d47"/><path d="M547.207 325.054h36.318v-35.358h-55.818l6.094 24.63c1.462 6.34 7.068 10.73 13.406 10.73zm-86.773-128.997c8.287.244 24.374 1.95 24.374 7.803s-14.137 7.803-25.593 7.803-12.675-6.34-13.65-9.022c-.73-2.683-1.462-6.828 14.87-6.584z" fill="#cd2827"/><path d="M461.165 202.397c-3.9 0-8.043-1.22-9.993-3.17 1.462-.732 3.656-1.463 7.07-1.463 6.337 0 16.574.73 21.937 3.17-.732.487-2.682 1.463-5.85 1.463h-13.163zm16.33 4.633c1.463 0 2.194.244 2.438.488-4.388 1.95-12.43 2.682-16.33 2.682-5.606 0-9.506 0-10.725-1.22.975-.732 3.17-1.95 5.362-1.95 2.925.244 17.306 0 19.256 0z" fill="#9b1616"/><g fill="#822626"><path d="M583.525 278.478v11.217l214.252-.487.73-11.217-214.983.487z"/><path d="M675.904 229.22v46.576l71.905-.244v-46.576c0-5.608-5.12-9.997-11.456-9.997h-49.236c-6.094.243-11.213 4.877-11.213 10.24z" opacity=".2"/></g><path d="M771.94 274.1h15.112c3.9 0 7.313-3.17 7.313-7.316v-7.56c0-3.902-3.17-7.315-7.313-7.315H771.94c-3.9 0-7.312 3.17-7.312 7.315v7.56c0 4.146 3.412 7.316 7.312 7.316zm-143.08.487h15.112c3.9 0 7.313-3.17 7.313-7.316v-7.56c0-3.902-3.17-7.316-7.313-7.316H628.86c-3.9 0-7.312 3.17-7.312 7.316v7.56c0 3.902 3.17 7.316 7.312 7.316z" fill="#fff"/><path d="M531.363 145.092c0 .975.73 1.707 1.462 1.95a135.03 135.03 0 0029.737-.243c1.22-.244 1.95-.976 1.95-2.195.732-19.508.732-38.53 0-56.574 0-1.22-.975-1.95-1.95-2.195-10.48-1.22-20.962-1.22-31.93 0-.975.244-1.706 1.22-1.706 2.195-.732 18.29.243 37.3 2.437 57.062z" fill="#cd2827"/><path d="M569.143 162.405c.73 0 1.462-.488 1.706-1.22.488-.976 0-2.195-.975-2.682l-16.574-8.048c-2.438-1.22-4.144-3.9-4.144-6.584l-.244-61.206c0-.244.244-.244.244-.244h10.237c1.22 0 1.95-.975 1.95-1.95 0-1.22-.975-1.95-1.95-1.95h-10.237a4.37 4.37 0 00-4.387 4.389l.243 61.207c0 4.4 2.438 8.29 6.338 10.242l16.574 8.047h1.22z" fill="#822626"/><path d="M680.93 327.942l68.98-.15-.045-20.727-68.98.15.045 20.727z" fill="#fff"/><path opacity=".8" d="M559.9 45.118c15.112 34.627 26.325 66.572 37.05 111.197l199.384-.488c-11.456-41.943-40.462-86.567-52.405-102.905L733.7 38.778l-170.134.488c-2.925.244-4.875 3.17-3.656 5.852z" fill="#8e6362"/><path d="M71.174 327.98c0 30.238 17.306 54.623 38.755 54.38 21.45 0 38.512-24.385 38.512-54.623s-17.306-54.622-38.755-54.378c-21.45 0-38.512 24.385-38.512 54.622z" fill="#000"/><path d="M109.93 363.826c14.137 0 25.35-16.094 25.35-36.1 0-19.752-11.456-35.846-25.594-35.846s-25.35 16.094-25.35 36.1 11.456 35.846 25.593 35.846zm-.244-57.305c8.288 0 15.113 9.5 15.113 21.215s-6.825 21.46-15.113 21.46-15.112-9.5-15.112-21.215c0-11.948 6.825-21.46 15.112-21.46z" fill="#625c5c"/><path d="M109.93 394.552c26.08 0 47.043-29.994 47.043-66.572 0-36.82-21.206-66.57-47.287-66.57s-47.042 29.994-47.042 66.57c0 36.822 21.206 66.572 47.286 66.572zm-.244-121.194c21.45 0 38.756 24.385 38.756 54.378S131.38 382.36 109.93 382.36s-38.755-24.385-38.755-54.38 17.062-54.622 38.51-54.622z" fill="#424242"/><path d="M103.348 327.98c0-5.12 2.925-9.022 6.337-9.022 3.656 0 6.337 4.145 6.58 9.022 0 5.12-2.925 9.023-6.337 9.023-3.656 0-6.58-4.146-6.58-9.023z" fill="#8b8282"/><defs><linearGradient id="A" x1="609.931" y1="-40.631" x2="609.931" y2="297.04" gradientUnits="userSpaceOnUse"><stop stop-color="#f4a984"/><stop offset="1" stop-color="#ee4d47"/></linearGradient><linearGradient id="B" x1="505.868" y1="-288.354" x2="505.868" y2="296.573" gradientUnits="userSpaceOnUse"><stop stop-color="#f4a984"/><stop offset=".561" stop-color="#ee4d47"/></linearGradient></defs></svg>