<svg xmlns="http://www.w3.org/2000/svg" xmlns:xlink="http://www.w3.org/1999/xlink" width="365" height="507" fill="none"><style>.B{fill:#0f264c}.C{fill:#402b2b}.D{fill-rule:evenodd}.E{fill:#ffedba}.F{fill:#ffc3bd}.G{fill:#f29994}</style><path d="M256.973 120.912c-.227 5.69-.886 10.73-1.568 15.944l-.11.854c-.72 5.518-1.918 11.036-3.117 16.554l-.001.004c-2.4 11.038-5.517 21.837-9.835 32.636l-1.68 4.08-.72 1.44c0 .1-.04.157-.1.226-.068.096-.15.213-.15.494-.48 1.2-1.2 2.4-2.4 3.6-.96 1.2-2.398 2.16-3.837 3.12l-.001.001c-1.44.72-3.118 1.2-4.557 1.44-2.878.24-5.277-.24-7.196-.72-3.838-1.2-6.476-2.88-9.115-4.8-2.638-1.68-4.796-3.6-6.955-5.518l-.001-.001c-8.47-7.767-15.324-15.997-21.695-24.914-4.792-1.704-8.768-5.802-8.768-5.802l5.475-17.147-5.475 16.907-12.233-7.44 3.598-14.638 14.152 5.04 9.594 15.117-.055 1.924.296-.244 11.753 10.8c4.077 3.6 8.154 6.718 12.232 9.837l.001.001 1.828 1.246c1.463 1.01 2.875 1.982 4.41 2.834 1.68 1.05 3.543 1.733 4.947 2.21l.33-.77 1.44-3.6c3.358-9.6 5.996-19.677 7.915-29.996.516-2.707.962-5.484 1.413-8.292l1.226-7.306c.72-5.04 1.44-10.56 1.68-15.358l17.27.24zm-30.315 65.366c.41.056.522-.094.332-.094-.066 0-.187.036-.332.094z" fill="url(#A)" class="D"/><path d="M248.202 98.764c-7.196 1.92-12.473 31.916-12.473 31.916l20.148 13.678s19.19-30.236 13.673-38.395c-5.997-8.4-10.794-10.08-21.348-7.2z" class="E"/><path opacity=".3" d="M248.682 105.483l-5.517 30.236 11.274 7.68-5.757-37.915z" fill="#ed6b57"/><path d="M290.045 478.756H266.34l-1.28-40.193h23.383l1.602 40.193z" class="F"/><path d="M266.088 476.583h23.943c.866 0 1.443.595 1.73 1.488l2.596 19.63c.29 2.082-1.442 3.866-3.46 3.866-8.366 0-12.405-.594-22.79-.594-6.347 0-19.905.594-28.847.594-8.654 0-9.52-9.22-5.77-9.815 16.732-3.57 23.366-8.923 28.847-13.682 1.154-.893 2.596-1.488 3.75-1.488z" fill="#14365b"/><path d="M265.06 439.65l.63 15.208h23.27l-.943-15.208H265.06z" class="G"/><path d="M262.886 448.635s-14.01-124.064-15.208-180.217c-.39-18.2 2.06-43.452 4.345-60.696h38.02l-2.503 60.696c-2.16 55.193 2.503 180.217 2.503 180.217h-27.158z" fill="url(#B)"/><path d="M253.135 98.246s-3.056 9.7-3.802 18.18c-.822 9.36-9.802 26.116-4.593 35.893 12.172 15.75 6.107 39.83 8.395 54.02h71.96c-1.2-29.276-1.2-47.274 12.712-107.506 0 0-15.11-3.36-30.462-4.08-11.994-.48-22.068-.96-32.622 0-14.152 1.2-21.588 3.49-21.588 3.49z" class="E"/><path d="M303.987 57.8c-2.16 10.56-4.078 29.756 3.118 36.715 0 0-2.88 10.56-22.308 10.56-21.587 0-10.314-10.56-10.314-10.56 11.754-2.88 11.514-11.52 9.355-19.677l20.15-17.038z" fill="url(#C)"/><path d="M295.83 64.76l-11.753 10.08c.48 1.92.96 3.84.96 5.76 4.558-.72 10.555-5.52 11.034-10.32.24-2.16.24-4.32-.24-5.52z" class="G"/><path d="M267.413 49.15c-7.697-11.546-5.27-22.222 0-28.18h20.62l2.062 32.302c0 3.85 19.702-2.75 17.87 1.374-4.582-.916-32.852 6.048-40.55-5.498z" class="B"/><path d="M315.02 38.602c-4.078 17.038-5.517 24.477-15.83 31.676-15.59 11.04-35.5 2.16-36.7-15.838-.96-16.078 5.996-41.515 23.986-45.354 18.23-3.6 32.862 12.48 28.544 29.516z" fill="url(#D)"/><path d="M294.025 450.512h-33.958l-2.612-10.81 38.02-1.138-1.45 11.95z" fill="#4b2a2a"/><path d="M284.08 240.177c-7.974 15.955-5.103 41.125-3.81 62.597 1.585 26.325 3.014 48.73 6.45 61.947 3.118-36.236 8.635-80.63 12.713-113.026-2.4-18.477-7.196-27.836-15.35-11.518z" fill="#ee4d47" fill-opacity=".3" style="mix-blend-mode:multiply"/><path d="M356.853 446.167L334.04 353.83v-90.706l-6.723-54.86H286.58c-4.78 30.417 5.818 113.7 14.327 156.972l26.4 80.93h29.535z" fill="url(#E)"/><path d="M340.015 479.3l-6.518-26.07H356.3l3.802 26.07h-20.097z" class="F"/><path d="M331.383 490.588l7.844-11.832h20.73c2.562 1.535 3.727 11.14 4.485 17.585.295 2.5-1.267 4.913-3.696 5.6L343.15 507h-25.46a3.68 3.68 0 01-3.676-3.747c0-7.35 12.11-12.052 17.368-12.665z" fill="#14365b"/><path d="M356.864 457.03l-.554-3.802h-22.813l.95 3.802h22.416z" class="D G"/><path d="M361.376 453.77H327.42l-2.612-10.81 38.02-1.14-1.45 11.95z" fill="#4b2a2a"/><g class="B"><circle r="20.619" transform="matrix(1 0 0 -1 325.146 34.03)"/><path d="M287.965 38.58c.254-1.436-.28-2.73-1.193-2.892s-1.86.87-2.114 2.306.28 2.73 1.194 2.892 1.86-.87 2.113-2.306zm-15.88-2.617c-.24 1.44-1.2 2.4-2.16 2.16s-1.44-1.44-1.2-2.88 1.2-2.4 2.16-2.16 1.44 1.44 1.2 2.88z"/><path d="M271.365 33.323l-3.118-1.68c-.24 0 1.2 2.88 3.118 1.68z"/></g><path d="M275.922 39.082s-3.358 5.52-6.716 8.16c1.44 2.16 4.797 1.92 4.797 1.92l1.92-10.08z" fill="#ed847e"/><path d="M282.124 57.268c-1.06 0-2.118 0-3.53-.345-.353 0-.706-.345-.353-.7 0-.345.353-.7.706-.345 9.177 1.724 14.472-3.794 14.472-3.794.353-.345.706-.345.706 0 .353.345.353.7 0 .7 0 0-4.236 4.483-12 4.483z" class="B"/><path d="M324.4 23.355c7.994 19.056-8.426 28.802-17.636 31.293l8.818-17.28-1.764-9.34c-8.033-4.982-21.985-15.132-13.52-15.88 10.58-.934 21.162 4.203 24.102 11.21z" fill="#d3d86c"/><g class="B"><path d="M287.436 7.886C279.52 12.446 298.95 55.4 313.34 49.4s9.595-29.996 2.64-35.995c-7.196-6.24-17.51-12-28.544-5.52z"/><path d="M321.708 23.033c9.347 28.04-9.85 42.383-20.618 46.048l10.31-25.43-2.062-13.746c-9.393-7.33-25.704-22.268-15.808-23.368 12.372-1.375 24.743 6.186 28.18 16.495z"/><path d="M282.88 5.727s-9.595 1.44-15.83 13.198c-6.477 12 30.223-11.52 24.945-13.198-5.037-1.68-9.114 0-9.114 0z"/></g><path d="M315.74 51.56c-1.44 3.36-4.078 5.76-6.956 6.96-4.078 1.68-6.717-1.92-5.997-6.24.72-3.84 3.598-9.12 8.155-9.12 4.318 0 6.477 4.32 4.798 8.4z" fill="url(#F)"/><path d="M345.482 117.552c4.078 9.6 7.196 19.198 10.075 29.037s5.277 19.917 6.476 30.476l.72 8.16v2.16c0 .034.004.102.01.2.042.588.16 2.233-.25 3.88-.24.96-.72 2.16-1.44 3.12-.72 1.2-1.68 2.16-2.64 2.88-2.16 1.44-4.078 1.92-5.517 2.16-.994.166-1.873.103-2.638.048a13.57 13.57 0 00-.96-.048c-.45-.113-.9-.172-1.325-.23-.48-.064-.93-.123-1.313-.25-1.68-.48-3.12-.96-4.318-1.44-2.638-1.2-5.037-2.4-7.436-3.6-9.115-5.28-17.27-11.28-24.945-17.998l.12-.18c-3.26-1.66-5.84-4.762-7.27-6.78l-11.08-12.24 7.196-13.438 12.233 8.4 5.855 17.81 1.223.613c7.604 3.817 15.346 7.704 22.905 10.854a39.334 39.334 0 004.44 1.66 57.36 57.36 0 01-.363-2.62c-.72-4.558-1.92-9.116-3.118-13.675l-.001-.003-3.838-13.918c-2.878-9.12-6.236-18.478-9.594-27.357l16.8-7.68z" class="D F"/><path d="M292.473 29.484c-.24 0-.48 0-.72-.24-2.638-2.64-5.517-2.16-5.756-2.16-.48 0-.96-.24-.96-.72s.24-.96.72-.96c.24 0 4.077-.72 7.196 2.64.24.24.24.96 0 1.2s-.24.24-.48.24zm-26.145-2.16c-.24 0-.48 0-.48-.24-.24-.24-.24-.96 0-1.2 3.118-3.36 6.956-2.64 7.196-2.64.48 0 .72.48.72.96s-.48.72-.96.72c-.24 0-3.118-.48-5.757 2.16-.24.24-.48.24-.72.24z" class="B"/><path d="M337.807 98.595c7.196 2.16 15.832 27.116 15.832 27.116l-28.065 19.918s-10.314-20.638-7.196-29.996c3.358-9.6 11.274-19.438 19.43-17.038z" class="E"/><g fill="#9fc6ff"><path d="M254.432 478.756c-2.975 0-5.95-.434-7.65-2.17-.85-.868-1.275-2.17-1.275-3.908 0-.868.425-1.737 1.275-2.17 3.826-2.17 16.153 4.342 17.853 5.21.426 0 .425.434.425.868s-.425.434-.425.434c-2.975 1.303-6.8 1.737-10.202 1.737zm-5.526-6.513c-.425 0-.85 0-1.275.434-.425 0-.425.434-.425.87 0 .868 0 1.736.85 2.605 1.7 1.736 7.227 2.17 14.028.868-4.676-2.605-10.202-4.776-13.178-4.776z"/><path d="M264.206 477.67c-4.26-1.58-11.505-7.9-11.08-11.06 0-.8.853-1.58 2.983-1.975 1.705 0 2.983.395 4.262 1.185 3.835 3.16 4.687 11.06 4.687 11.06 0 .395 0 .395-.426.8h-.427zm-7.67-11.85h-.426c-1.278 0-1.278.8-1.278.8-.426 1.975 4.687 7.1 8.522 9.086-.426-2.37-1.278-7.1-3.835-9.086-.852-.395-1.704-.8-2.983-.8zm77.87 16.1c-2.332-1.714-4.414-3.768-4.746-6.108-.166-1.17.25-2.436 1.25-3.797.5-.68 1.333-1.116 2.25-.967 4.248.502 10.158 12.705 11 14.365.333.245.083.585-.167.925s-.583.096-.583.096c-3.082-.693-6.33-2.556-8.996-4.514zm-.58-8.287c-.333-.245-.666-.5-1.25-.394-.333-.245-.584.095-.834.436-.5.68-1 1.36-.833 2.53.332 2.34 4.413 5.863 10.493 8.76-2.164-4.735-5.245-9.618-7.577-11.332z"/><path d="M342.692 486.698c-2.43-3.692-4.467-12.817-2.313-15.048.455-.62 1.578-.748 3.475.17 1.336.98 2.1 2.027 2.657 3.382 1.186 4.686-2.696 11.368-2.696 11.368-.228.3-.228.3-.79.374l-.334-.246zm.813-13.704l-.334-.245c-1.002-.737-1.457-.118-1.457-.118-1.47 1.303-.42 8.272 1.447 12.03 1.03-2.103 3.093-6.31 2.227-9.33-.44-.8-.88-1.6-1.883-2.337z"/></g><path d="M326.054 202.022l1.92 6.48c.24.48-.24.96-1.2.96h-74.118c-.72 0-1.2-.24-1.2-.72l-.72-6.48c0-.48.48-.72 1.2-.72h72.92c.72-.24 1.2 0 1.2.48z" fill="#f18069"/><g fill="#6a2828"><path d="M316.46 210.18h1.92c.48 0 .72-.24.72-.48l-.96-8.4c0-.24-.48-.48-.72-.48h-1.92c-.48 0-.72.24-.72.48l.96 8.4c0 .24.24.48.72.48z"/><use xlink:href="#R"/><use xlink:href="#R" x="29.023"/></g><path d="M287.196 35.963l-3.118-1.68c0 .24 1.2 3.12 3.118 1.68z" class="B"/><path d="M119.38 34.106h-18.105l-2.452-10.943s7.167 4.15 8.864 1.32 1.32-1.698 3.018-1.32 1.697-1.887 3.77-.566c2.264 1.51 5.658 8.68 4.904 11.51z" fill="#6b1912"/><path d="M100.71 483.718l22.254-1.887-1.132-27.546-22.442 2.075 1.32 27.358z" fill="#d88d6c"/><path d="M142.2 479.944s-14.7-6.792-17.162-11.697c0 0-4.338-15.85-10.938-7.547 0 0-6.8 5.47-16.408 1.132l-1.132 30 66.573-.19c-1.698-4.528-3.206-9.622-20.934-11.698z" fill="url(#G)"/><path d="M96.56 492.02l-.377 4.716 67.138-.188c0-1.887.566-2.83-.377-4.717l-66.384.19z" fill="#c73e39"/><path d="M3.206 479.944l22.254 3.774 5.846-26.792-22.065-3.773-6.035 26.79z" fill="#d88d6c"/><path d="M46.016 479.944s-14.7-6.792-17.162-11.697c0 0 3.395-12.453-4.526-6.227 0 0-13.58 5.095-19.236-1.132L.565 492.02l66.573-.19c-2.075-4.717-3.583-9.81-21.122-11.887z" fill="url(#H)"/><path d="M.377 492.02L0 496.737l67.14-.19c0-1.887.566-2.83-.377-4.717l-66.385.19z" fill="#c73e39"/><path d="M126.734 224.1s3.96 113.394.377 242.26c0 0-10.75 10.188-31.117 3.396 0 0 .19-143.393-5.28-200.373 0 0-25.648 108.3-58.086 202.07 0 0-21.688 4.15-29.42-8.113 0 0 43.753-151.883 50.166-239.24h73.362z" fill="url(#I)"/><path d="M126.734 224.1H53.37c-.566 6.604-1.132 13.585-2.075 20.755 43.753.188 66.95-10.943 75.625-16.038 0-3.207-.188-4.717-.188-4.717z" fill-opacity=".45" style="mix-blend-mode:multiply" class="C"/><path d="M166.716 145.235c-20.18-35.66-36.02-47.734-36.02-47.734-8.675 4.905-2.075 38.49-2.075 38.49 5.47 10.755 9.24 20.377 17.35 29.81l20.745-20.566z" fill="#d1402c"/><path d="M130.694 97.5l-3.77 126.034s-25.65 13.02-76.758 3.963c0 0-.19-31.32-7.166-59.056 0 0-13.013-52.263-6.412-67.545 0 0 41.68-25.85 94.107-3.396z" fill="url(#J)"/><path d="M91.1 76.82l.377 13.5s-3.206 4.717-10.938 5.283c-7.732.377-11.504-3.962-11.504-3.962L68.27 71.54c9.618 4.15 19.048 5.85 22.82 5.283z" fill="url(#K)"/><path d="M90.336 71.275L91.1 86.18c-3.772.566-13.2-1.132-22.63-5.283l-.566-9.622h22.442z" fill="url(#L)" style="mix-blend-mode:multiply"/><path d="M39.228 130.33s11.127 25.094 15.087 36.414c3.96 11.132 3.96 55.47 24.706 63.96 0 0-22.065-1.32-29.043-3.207 0 0-.377-33.396-7.167-59.056l-6.6-39.244 3.017 1.132z" fill="#ee4d47" fill-opacity=".3" style="mix-blend-mode:multiply"/><path d="M53.938 38.445c.377.2.754 6.226.754 6.226l1.5 12.64 6.978 5.472 3.96 1.698s5.846-2.453 5.092-4.717c-.754-2.075-4.526-31.886-5.28-31.886s-6.8 4.34-6.8 4.34l-6.224 6.226zm55.257-11.32c1.697 0-.943 20.754-.943 20.754l-3.017-8.302-2.075-10 6.035-2.453z" class="C"/><path d="M106.366 31.276l3.206 26.603s1.132 22.452-17.35 23.773c-18.482 1.132-31.118-17.17-31.118-17.17s-2.263 2.64-4.715-1.887c-2.263-4.528-.754-10.566 2.452-11.132 3.395-.377 4.903 1.51 5.28 4.34s.754 4.906.754 4.906l2.83-.377-2.075-21.886s4.338-8.5 9.24-10.188 9.24 5.094 9.24 5.094 4.526.943 8.864 0 7.167-2.075 7.167-2.075 2.64.755 6.223 0z" fill="url(#M)"/><path d="M92.976 71.464c-6.224.377-7.166-6.792-7.166-6.792l14.7-1.887s1.13 8.113-7.544 8.68z" fill="#893d43"/><path d="M86.376 66.935c-.566-1.32-.754-2.264-.754-2.264l14.7-1.887s.19.943 0 2.453l-13.955 1.698z" fill="#fffeff"/><path d="M86.942 24.484V5.24c-11.504.566-23.385 2.83-29.232 10-6.978 8.5-3.017 28.113-3.017 28.113s8.487-.943 9.995-3.774 15.842-6.792 26.78-6.226 16.22-.566 21.688-5.283c1.132-.943 2.075-2.264 2.83-3.774H86.942v.19z" class="C"/><path d="M53.372 36.18s8.11-2.64 21.688-3.773c22.82-9.622 32.626-7.924 32.626-7.924s-.188-7.358-2.263-12.452S89.393-.233 77.7.9s-23.763 9.8-25.65 18.112c-1.51 6.415 1.32 17.17 1.32 17.17z" fill="url(#N)"/><path d="M67.14 33.35c2.46-11.697 19.99-17.546 32.437-17.357 12.258.19 20.933 10.377 22.253 17.358.566 2.83-1.697 3.207-2.45.755-.566-1.698-1.698-9.81-13.013-8.868S95.616 36.37 89.958 37.313c-5.28.943-11.316-2.83-22.82-3.962z" fill="url(#O)"/><path d="M105.046 35.993v-1.32c-.566 0-4.903-.566-10.184.566l.2 2.075c4.338-1.32 9.995-1.32 9.995-1.32zM73.174 40.7c3.395-1.887 9.807-2.83 9.807-3.02l-.754-1.887c-.2 0-6.035 1.132-9.807 3.585l.754 1.32z" class="C"/><path d="M92.033 47.125s.566 3.962 2.075 5.094 4.15 2.075 4.526 3.02c.377.755-.377 2.264-2.075 2.83S94.674 59.2 94.674 59.2s3.395.377 5.092-1.698-.19-3.774-1.886-4.717l-3.206-1.887c-.943-.566-2.64-3.774-2.64-3.774z" fill="#d87c60"/><path d="M83.924 49.2c0 1.887-1.32 3.585-3.017 3.585S77.9 51.275 77.9 49.2c0-1.887 1.32-3.585 3.017-3.585s3.017 1.5 3.017 3.585zm20.746-2.453c0 1.887-1.32 3.585-3.018 3.585s-3.017-1.5-3.017-3.585c0-1.887 1.32-3.585 3.017-3.585 1.698.2 3.018 1.698 3.018 3.585z" class="C"/><path d="M197.08 97.312H80.53V187.3h116.55V97.312z" fill="#8c5e5e"/><path d="M197.267 97.312h-42.433V187.3h42.433V97.312z" fill="#694646"/><path d="M182.746 97.312h-10.938v12.452h10.938V97.312zm-62.612 0h-10.94v12.452h10.94V97.312z" fill="#a3774a"/><path d="M197.268 163.537s-6.035 3.962-7.732 5.66-4.715 17.924-1.698 19.622 8.864 0 10.75.377c2.075.378 8.11-3.396 8.11-6.414s-3.77-23.02-4.714-23.396-4.715-2.83-4.715-2.83v6.98z" fill="#f4a984"/><path d="M121.453 162.216H85.055v17.735h36.398v-17.735z" fill="#fff"/><path d="M49.223 185.234c-13.767-20-15.653-80.564-15.653-80.564 18.86 2.453 31.495 27.735 31.495 27.924l2.83 36.226 48.13 7.712 2.6-2.43s11.127-5.66 20.18-4.717c0 0 4.15.755 3.206 3.207-.377 1.32.378 2.17 1.132 3.02s1.51 1.698 1.132 3.02c-.32 1.114-.033 1.96.248 2.792.386 1.14.762 2.255-.437 4 0 0 1.51 2.264-.19 4.34l-.243.298c-1.79 2.195-5.286 6.477-6.546 6.117-.474-.136-1.578-.32-2.818-.526-2.215-.37-4.86-.8-5.103-1.173-.377-.566-.754-1.698 1.132-2.83 0 0-2.075.566-4.715.19-2.64-.19-6.412-2.264-6.412-2.264l-.7-.584c-52.9 4.34-69.267-3.756-69.267-3.756z" fill="url(#P)" class="D"/><path d="M70.345 160.14l-5.28-27.736s-9.618-29.055-28.477-31.508c0 0-13.58 8.5 3.206 66.225l30.552-6.98z" fill="url(#Q)"/><defs><linearGradient id="A" x1="261.207" y1="191.586" x2="255.873" y2="136.621" xlink:href="#S"><stop stop-color="#ffb3b6"/><stop offset="1" stop-color="#ffc8c1"/></linearGradient><linearGradient id="B" x1="266.717" y1="155.301" x2="266.717" y2="455.157" xlink:href="#S"><stop stop-color="#f4a984"/><stop offset="1" stop-color="#ee4d47"/></linearGradient><linearGradient id="C" x1="292.217" y1="99.091" x2="292.437" y2="35.509" xlink:href="#S"><stop stop-color="#ffb3b6"/><stop offset="1" stop-color="#ffc8c1"/></linearGradient><linearGradient id="D" x1="318.187" y1="67.062" x2="311.862" y2="22.196" xlink:href="#S"><stop stop-color="#ffb3b6"/><stop offset="1" stop-color="#ffc8c1"/></linearGradient><linearGradient id="E" x1="322.26" y1="157.09" x2="322.26" y2="449.818" xlink:href="#S"><stop stop-color="#f4a984"/><stop offset="1" stop-color="#ee4d47"/></linearGradient><linearGradient id="F" x1="316.925" y1="57.029" x2="315.53" y2="46.362" xlink:href="#S"><stop stop-color="#ffb3b6"/><stop offset="1" stop-color="#ffc8c1"/></linearGradient><linearGradient id="G" x1="129.846" y1="464.091" x2="129.846" y2="492.749" xlink:href="#S"><stop stop-color="#f4a984"/><stop offset="1" stop-color="#ee4d47"/></linearGradient><linearGradient id="H" x1="33.852" y1="453.771" x2="33.852" y2="492.889" xlink:href="#S"><stop stop-color="#f4a984"/><stop offset="1" stop-color="#ee4d47"/></linearGradient><linearGradient id="I" x1="65.909" y1="153.949" x2="65.909" y2="472.13" xlink:href="#S"><stop stop-color="#822626"/><stop offset=".943" stop-color="#402b2b"/></linearGradient><linearGradient id="J" x1="82.707" y1="55.377" x2="82.707" y2="234.6" xlink:href="#S"><stop stop-color="#f4a984"/><stop offset="1" stop-color="#ee4d47"/></linearGradient><linearGradient id="K" x1="72.141" y1="89.358" x2="91.225" y2="97.589" xlink:href="#S"><stop stop-color="#ffb3b6"/><stop offset="1" stop-color="#ffc8c1"/></linearGradient><linearGradient id="L" x1="71.764" y1="79.891" x2="90.956" y2="88.019" xlink:href="#S"><stop stop-color="#ffb3b6" stop-opacity=".3"/><stop offset="1" stop-color="#ffc8c1"/></linearGradient><linearGradient id="M" x1="112.03" y1="75.192" x2="107.948" y2="38.714" xlink:href="#S"><stop stop-color="#ffb3b6"/><stop offset="1" stop-color="#ffc8c1"/></linearGradient><linearGradient id="N" x1="79.647" y1="-18.231" x2="79.647" y2="36.628" xlink:href="#S"><stop stop-color="#f4a984"/><stop offset="1" stop-color="#ee4d47"/></linearGradient><linearGradient id="O" x1="78.214" y1="10.557" x2="78.214" y2="67.588" xlink:href="#S"><stop stop-color="#f4a984"/><stop offset="1" stop-color="#ee4d47"/></linearGradient><linearGradient id="P" x1="52.143" y1="157.208" x2="149.911" y2="189.798" xlink:href="#S"><stop stop-color="#ffb3b6"/><stop offset="1" stop-color="#ffc8c1"/></linearGradient><linearGradient id="Q" x1="50.873" y1="81.71" x2="50.873" y2="149.604" xlink:href="#S"><stop stop-color="#f4a984"/><stop offset="1" stop-color="#ee4d47"/></linearGradient><linearGradient id="S" gradientUnits="userSpaceOnUse"/><path id="R" d="M258.173 210.18h1.92c.48 0 .72-.24.72-.48l-.96-8.4c0-.24-.48-.48-.72-.48h-1.92c-.48 0-.72.24-.72.48l.96 8.4c0 .24.48.48.72.48z"/></defs></svg>