<svg xmlns="http://www.w3.org/2000/svg" xmlns:xlink="http://www.w3.org/1999/xlink" width="721" height="679" fill="none"><style>.B{fill:#fff}.C{opacity:.2}.D{fill-rule:evenodd}.E{opacity:.5}.F{fill:#f58a6b}.G{fill:#ee4d47}.H{fill:#fcddd4}.I{fill:#fafbfc}.J{fill:#402b2b}.K{fill-opacity:.3}</style><path d="M334 141.05c-83.872-57.27-217.326 7.636-208 144.183 15.902 232.818 178.136 259.862 320 232.818 185.636-35.388 228.465-247.755 57.055-232.818C365.493 297.22 438.84 212.64 334 141.05z" class="H"/><mask id="A" maskUnits="userSpaceOnUse" x="69" y="89" width="584" height="501"><path d="M334 141.052c-83.872-57.27-217.326 7.635-208 144.182 15.902 232.818 178.136 259.862 320 232.818 185.636-35.388 228.465-247.754 57.055-232.818C365.492 297.22 438.84 212.64 334 141.052z" class="H"/></mask><g mask="url(#A)"><path opacity=".7" d="M101.07 156.138c27.63-12.132 92.808-29.613 132.468-2.49 49.576 33.906-103.79 77.74-56.592 103.537s135.39-82.595 169.475-63.964-86.732 68.34-51.578 94.363 138.255-87.837 180.924-66.217-102.005 83.82-33.833 121.084" stroke="url(#B)" stroke-width="2"/><path d="M271 545.05c0-27.614 22.386-50 50-50h267v110H271v-60z" class="F"/></g><g class="D"><path d="M158.367 299.676a22.905 22.905 0 013.926 4.178l2.632-3.51c-1.248-1.324-2.464-2.53-3.918-3.67l-2.64 3.003z" fill="#3e1a0b"/><path d="M166.9 305.808a5.27 5.27 0 00-7.417-1.967l-3.5 2.21c-2.634 1.6-3.47 5.14-2.1 7.837a5.27 5.27 0 007.416 1.967l3.49-2.21c2.633-1.6 3.622-5.053 2.1-7.837z" fill="#f69e9f"/><path d="M308.1 194.245l-61.828 10.19-3.293-19.9c-.328-1.698-1.933-2.926-3.782-2.686l-49 8.03c-1.698.328-2.927 1.932-2.687 3.78l3.294 19.9-58.28 9.62c-1.46.264-2.602 1.717-2.34 3.178l39.892 243.154c.263 1.46 1.717 2.6 3.178 2.337l175.618-28.816c1.46-.263 2.602-1.717 2.338-3.177l-40-243.123c-.058-1.642-1.6-2.633-3.09-2.488z" fill="url(#C)"/><path d="M299.52 225.048l-154.332 25.408c-1.34.232-2.276 1.503-2.045 2.844l34.56 210.397c.232 1.34 1.503 2.276 2.845 2.044l154.33-25.408c1.34-.232 2.277-1.503 2.045-2.844l-34.56-210.397c-.232-1.34-1.503-2.276-2.844-2.044z" fill="#f36f49"/><path d="M299.044 217.59l-150.578 24.657c-1.34.232-2.157 1.47-1.926 2.812l33.728 205.4c.232 1.34 1.47 2.157 2.812 1.926l150.665-24.81c1.34-.232 2.157-1.47 1.926-2.812l-33.728-205.4c-.32-1.2-1.558-2.006-2.9-1.774z" class="I"/></g><path opacity=".8" d="M293.514 226.472l-136.982 22.545a2.27 2.27 0 00-1.745 1.105c-.35.604-.546 1.294-.474 2.04l31.13 189.504c.072.746.502 1.396 1.106 1.745s1.294.546 2.04.473l137.014-22.426c.746-.072 1.396-.502 1.745-1.105s.546-1.295.474-2.04L296.66 228.7c-.073-.746-.502-1.396-1.106-1.745s-1.294-.546-2.04-.473zm33.204 192.008c.127.477-.015.897-.31 1.23s-.618.55-1.094.676L188.452 442.9c-.476.128-.897-.015-1.23-.308s-.548-.618-.676-1.094l-31.16-189.623c-.127-.476.015-.897.308-1.23a2.08 2.08 0 011.095-.676l136.982-22.545c.476-.128.897.014 1.23.308s.548.618.676 1.094l31.042 189.654z" class="F"/><g class="D"><path d="M215.47 191.384c-2.92.528-4.878 3.22-4.35 6.14s3.22 4.877 6.142 4.35 4.878-3.22 4.35-6.14c-.496-2.8-3.22-4.877-6.142-4.35z" class="I"/><path d="M256.594 199.627l-77.003 12.597c-1.7.327-2.927 1.932-2.687 3.78l3.59 21.49c.327 1.698 1.932 2.926 3.782 2.686l77.003-12.597c1.698-.327 2.927-1.932 2.686-3.78l-3.5-21.64c-.447-1.666-2.17-2.863-3.87-2.535z" class="F"/><path opacity=".8" d="M215.15 209.71l-29.334 4.8c-1.342.232-2.277 1.503-2.045 2.844l2.79 16.6c.232 1.34 1.503 2.276 2.845 2.044l29.334-4.8c1.342-.232 2.277-1.503 2.045-2.844l-2.79-16.6c-.232-1.34-1.503-2.276-2.845-2.044z" fill="#f36f49"/></g><g class="G"><path d="M211.06 264.02l.34 2.066 80.624-13.253-.34-2.066-80.623 13.253zm.84 5.23l.34 2.067 80.623-13.254-.34-2.066L211.9 269.25zm41.07-1.546l.34 2.067 40.372-6.637-.34-2.067-40.372 6.637zm-40.213 6.638l.34 2.067 37.818-6.217-.34-2.067-37.82 6.217z" class="C"/><use xlink:href="#Z" class="C"/><path d="M217.47 303.437l.34 2.067 80.623-13.254-.34-2.067-80.623 13.254zm41.185-1.567l.34 2.067 40.372-6.637-.34-2.067-40.373 6.637zm-40.335 6.658l.34 2.066 37.82-6.216-.34-2.067-37.818 6.217zm3.358 20.337l.34 2.067 80.623-13.254-.34-2.066-80.623 13.253zm.85 5.23l.34 2.067L303.5 322.9l-.34-2.067-80.623 13.253zm41.182-1.566l.34 2.067 40.372-6.637-.34-2.066-40.372 6.636zm-40.336 6.658l.34 2.067 37.82-6.217-.34-2.067-37.82 6.217z" class="C"/><use xlink:href="#Z" x="10.228" y="62.24" class="C"/><use xlink:href="#Z" x="11.1" y="67.593" class="C"/><path d="M268.9 364.23l.34 2.067 40.373-6.636-.34-2.067-40.372 6.636zm-40.335 6.67l.34 2.067 37.82-6.217-.34-2.067-37.818 6.217z" class="C"/><use xlink:href="#Z" x="15.32" y="93.617" class="C"/><path d="M232.788 397.054l.34 2.067 80.623-13.254-.34-2.067-80.623 13.254zm41.184-1.568l.34 2.067 40.372-6.636-.34-2.067-40.372 6.636zm-40.214 6.64l.34 2.066 37.818-6.216-.34-2.067-37.82 6.217zM173.02 264.37l-.985.136.136.984 3.03 18.45.136.984.984-.136 19.795-3.263.984-.137-.136-.984-3.03-18.45-.136-.984-.984.136-19.794 3.263zm21.87 15.442l-17.977 2.903-2.8-16.6 17.858-2.872 2.908 16.57zm-16.233 19.402l-.984.136.255.952 3.03 18.45.136.984.984-.136 19.795-3.263.984-.136-.136-.984-3.03-18.45-.136-.984-.984.136-19.914 3.295zm21.872 15.442l-17.858 2.87-2.8-16.6 17.858-2.872 2.8 16.6zm-16.38 17.9l-.984.136.136.984 3.03 18.45.136.984.984-.136 19.795-3.263.984-.137-.136-.984-3.03-18.45-.136-.984-.984.136-19.795 3.263zm21.872 15.442l-17.858 2.87-2.8-16.6 17.858-2.872 2.8 16.6zm-16.317 18.148l-.984.136.136.984 3.062 18.57.136.984.984-.136 19.794-3.263.985-.136-.137-.984-3.03-18.45-.136-.984-.985.136-19.826 3.144zm21.872 15.442l-17.858 2.872-2.8-16.6 17.858-2.87 2.8 16.6zm-16.515 16.926l-.985.137.136.984 3.03 18.45.136.984.985-.136 19.794-3.263.984-.136-.136-.984-3.03-18.45-.136-.984-.984.136-19.794 3.263zm21.84 15.323l-17.858 2.872-2.8-16.6 17.858-2.87 2.8 16.6z" class="C"/><path d="M185.335 273.188l-10.326-6.162-1.165 1.843 12.257 7.176.523-.906 13.97-22.622-1.81-1.045-13.447 21.716z"/></g><path d="M191.228 308.984l-10.327-6.162-1.165 1.843 11.352 6.653.873.404.555-.787 13.937-22.74-1.8-1.045-13.414 21.835zm11.28 68.284l-10.446-6.13-1.046 1.8 11.233 6.685.905.522.523-.905 14.1-22.654-1.843-1.164-13.415 21.835z" class="F"/><g class="I"><path d="M173.106 483.24c-1.072.287-1.682 1.343-1.395 2.414s1.344 1.68 2.415 1.394 1.682-1.343 1.395-2.414-1.344-1.68-2.415-1.394z" class="D"/><path d="M202.496 474.838a1.48 1.48 0 00.743-1.954 1.48 1.48 0 00-1.955-.743 1.48 1.48 0 00-.743 1.955 1.48 1.48 0 001.955.742zm40.784-12.06a1.11 1.11 0 00.784-1.358 1.11 1.11 0 00-1.358-.784 1.11 1.11 0 00-.784 1.358 1.11 1.11 0 001.358.784z"/><path d="M264.495 458.623a1.725 1.725 0 00.893 3.333 1.68 1.68 0 001.22-2.113c-.224-.833-1.16-1.475-2.113-1.22zm32.253-7.24a.58.58 0 00-.436.755.58.58 0 00.754.436.58.58 0 00.436-.755c.024-.4-.397-.53-.754-.436zm66.625-21.806a.986.986 0 10.51 1.904c.596-.16.825-.73.698-1.207-.01-.508-.613-.857-1.208-.697z" class="D"/></g><path d="M474.48 238.052c0-11.046-8.955-20-20-20H379c-11.045 0-20 8.954-20 20v10.402c0 11.046 8.955 20 20 20h95.48v-30.402z" class="B"/><g fill="#f4a984"><circle r="3.828" transform="matrix(-1 0 0 1 448.32 243.572)"/><circle r="3.828" transform="matrix(-1 0 0 1 432.369 243.572)"/><circle r="3.828" transform="matrix(-1 0 0 1 416.419 243.572)"/><circle r="3.828" transform="matrix(-1 0 0 1 400.469 243.572)"/><circle r="3.828" transform="matrix(-1 0 0 1 384.519 243.572)"/></g><path d="M325 405.552c-43.6 0-21.5-63-5-94.5 8.833-6.666 30.5-20.1 46.5-20.5s26 19.5 29 29.5c-1.833.166-3.7 7.8 3.5 37s3.667 44.5 1 48.5h-75z" class="J"/><path d="M370.6 390.592c-4.112-7.19-1.028-18.315-1.028-18.315l-12.68 2.568-12.68-2.568s1.542 5.306 1.028 11.126c4.455 5.135 14.737 14.72 25.36 7.19z" fill="url(#D)"/><path d="M368.797 376.285c-2.775 1.672-6.282 3.22-10.207 4.406-4.924 1.49-9.615 2.14-13.298 2 .337-5.533-1.08-10.414-1.08-10.414l12.68 2.568 12.68-2.568s-.447 1.613-.774 4.008z" fill="url(#E)" style="mix-blend-mode:multiply"/><path d="M325.876 400.69c7.368 6.505 21.933 20.712 31.186 20.712s25.704-13.523 33.072-20.027c-3.6-1.37-14.565-5.65-17.136-7.874-.856-.856-1.713-1.883-2.227-2.9-10.624 7.532-20.905-2.054-25.36-7.36-.342 3.766-1.37 7.53-4.283 10.1-2.914 2.396-11.824 5.99-15.25 7.36z" fill="url(#F)"/><path d="M391.776 333.422c-1.2-2.225-3.084-2.568-4.284-2.225l-5.826-19c-8.054-3.766-15.593-7.018-24.675-7.703v-.17h-5.14c-5.654.17-11.31.342-16.792 1.37-1.37.343-2.742.685-4.113.685-1.713 9.072-4.626 24.99-5.826 24.82h-.17c-.172 0-.172 0-.343-.172-1.2-.342-2.57 0-3.77 2.054-2.056 3.766 0 11.298 2.742 13.523 1.37 1.027 2.57 1.883 3.427 2.396 1.37 6.847 3.77 13.35 7.368 17.288 9.425 10.1 18.164 12.325 20.563 12.667h1.028c1.713-.17 11.138-1.883 21.248-12.838 3.598-3.766 6.17-6.504 7.71-16.603 1.028-.514 2.056-1.37 3.77-2.74 3.084-2.054 5.14-9.585 3.084-13.35z" fill="url(#G)"/><path d="M356.736 343.052s.132 3.856-.9 5.125-3.022 2.497-3.185 3.446c-.2.768.637 2.116 2.082 2.447s1.68.848 1.68.848-2.667.78-4.335-.992-.406-3.63.816-4.74l2.293-2.2c.673-.658 1.56-3.933 1.56-3.933zm10.33 17h-20.702c-.675 0-1.152.655-.88 1.274 1.46 3.335 5.04 8.226 11.017 8.226 5.95 0 9.784-4.852 11.43-8.185.308-.624-.167-1.315-.863-1.315z" fill="#d87c60"/><path d="M366.976 363.052h-20.61a16.19 16.19 0 01-.883-1.726c-.27-.62.205-1.274.88-1.274h20.7c.696 0 1.172.69.864 1.315-.263.53-.58 1.102-.954 1.685z" class="B D"/><path d="M376.598 292c25.53 3.252 19.534 34.405 14.565 39.882l-3.663 6.17c-1.833-3.167-5.6-11.9-6-21.5-3.833 2.5-15.3 7.5-30.5 7.5-19 0-24.208 3.145-26 12-4.455-9.928-7.52-30.017 3.447-41.314 15.08-15.748 37.87-19.514 48.15-2.74z" class="J"/><path d="M325.02 336l.857 7.36s-2.57-1.37-3.085-4.793c-.17-2.054.686-3.423 2.228-2.568zm62.2 0l-.857 7.36s2.57-1.37 3.085-4.793c.17-2.054-.514-3.423-2.228-2.568z" fill="#ed8a40"/><path d="M373.685 344.312c0 1.54-1.2 2.9-2.913 2.9-1.542 0-2.913-1.198-2.913-2.9 0-1.54 1.2-2.9 2.913-2.9s2.913 1.37 2.913 2.9zm-30.5 2.9a2.91 2.91 0 002.913-2.9 2.91 2.91 0 10-2.913 2.92z" class="J"/><path d="M335.54 338.912c1.25-1.362 4.905-4.087 9.537-4.087m23.503.117c1.847-.08 6.36.578 9.635 3.854" stroke="#402b2b" stroke-width="2"/><path d="M418.065 439.547c.685-18.486-4.97-29.44-13.537-34.063s-28.787-10.44-29.473-10.612l-18.335 14.55-17.478-14.55c-.685.17-21.42 5.99-29.815 10.612-8.568 4.622-14.223 15.577-13.537 34.063.514 14.892-.515 38.342-.343 55.46H418.58c0-17.117-1.028-40.567-.514-55.46z" fill="url(#H)"/><path d="M366.83 401.205l-4.798-2.225-5.484 10.1-5.483-10.1-4.97 2.225 7.197 11.64v82.16h6.682V412.33l6.855-11.126z" style="mix-blend-mode:multiply" class="G K"/><path d="M345.24 383.232c-.17 4.964 6.855 17.802 6.855 17.802l-12.167 11.8-3.94-17.116s3.94-10.442 9.253-12.496zm23.303 0c.17 4.964-7.7 17.973-7.7 17.973l12.852 11.64 3.94-17.288s-3.77-10.27-9.082-12.324zm-9.936 32.522c0 1.027-.857 1.883-1.885 1.883s-1.885-.856-1.885-1.883a1.9 1.9 0 011.885-1.882 1.9 1.9 0 011.885 1.882zm-.001 17.46c0 1.027-.857 1.883-1.885 1.883s-1.885-.856-1.885-1.883.857-1.883 1.885-1.883 1.885.684 1.885 1.883zm0 17.116a1.9 1.9 0 01-1.885 1.882 1.9 1.9 0 01-1.885-1.882c0-1.027.857-1.883 1.885-1.883s1.885.856 1.885 1.883zm0 19a1.9 1.9 0 01-1.885 1.883 1.9 1.9 0 01-1.885-1.883 1.9 1.9 0 011.885-1.882 1.9 1.9 0 011.885 1.882z" class="B"/><path d="M298.63 410.62s-18.164 48.784-19.534 56.83c-1.2 8.045 9.08 26.702 13.88 27.387 7.026 1.027 12.68-1.027 19.706-13.01 6.854-11.982 5.655-63.162 5.655-63.162l-19.706-8.045z" fill="url(#I)"/><path d="M318.508 413.872s-1.2 58.882-3.77 66.242c-4.113 11.81-14.565 15.063-14.565 15.063h11.652s9.082-5.99 9.938-23.964c.515-10.783-1.37-45.188-2.398-56.657-.343-3.08-.857-.684-.857-.684z" style="mix-blend-mode:multiply" class="G K"/><path d="M322.535 408.315l-19.7-7.95-4.108 10.157 19.7 7.95 4.108-10.157z" class="B"/><path d="M396.99 422.26s-7.026 33.378-7.54 47.072 0 25.504 0 25.504l4.97.342 2.57-72.918z" style="mix-blend-mode:multiply" class="G K"/><path d="M337.356 376.043c-9.425 0-12.5-4.62-14.394-11.64-.857-3.766-1.2-13.865-1.2-14.207h2.74c0 .17.343 10.27 1.2 13.693 1.713 6.676 4.284 10.1 13.537 9.414l.17 2.74h-2.056zm19.364-93.116c-7.54-.685-24.847-.17-32.73 14.892 0 0 2.056 3.594 4.455 1.198 8.568-7.703 20.563-7.874 27.93-7.874 7.54 0 20.05 0 28.445 7.874 2.57 2.225 4.455-1.198 4.455-1.198-7.7-15.063-25.018-15.577-32.557-14.892z" class="B"/><path d="M397.33 334.62l-.514-13.35c-.342-5.65-1.2-14.892-3.084-19.856-6.17-16.946-26.217-20.198-36.67-20.198-10.624 0-31.015 3.252-37.184 20.027-1.713 4.793-2.57 13.35-3.084 19.17-.17 3.423-.343 14.036-.343 14.036h2.913s0-10.613.343-14.036c.343-4.45 1.2-10.955 3.427-17.117 5.14-14.55 24.16-16.1 33.414-16.1 9.425 0 28.788 1.54 33.928 16.1 2.4 6.847 3.256 13.865 3.6 18.315.17 2.9.342 13.01.342 13.01h2.913z" fill="url(#J)"/><path d="M320.05 332.566h-3.77v16.1h3.77v-16.1z" class="B"/><path d="M326.733 351.737h-4.284c-2.056 0-3.77-1.712-3.77-3.766v-14.72c0-2.054 1.713-3.766 3.77-3.766h4.284c.514 0 .857.342.857.856v20.37c0 .513-.343 1.027-.857 1.027z" fill="url(#K)"/><path d="M314.738 350.025h-.17a1.535 1.535 0 01-1.543-1.54v-16.1c0-.856.686-1.54 1.543-1.54h.17c.857 0 1.542.685 1.542 1.54v16.1c0 .856-.685 1.54-1.542 1.54z" fill="url(#L)"/><path d="M393.177 348.934h3.77v-16.1h-3.77v16.1z" class="B"/><path d="M386.707 352.08h4.284c2.056 0 3.77-1.712 3.77-3.766v-14.72c0-2.054-1.713-3.766-3.77-3.766h-4.284c-.514 0-.857.342-.857.856v20.37c-.17.514.343 1.027.857 1.027z" fill="url(#M)"/><path d="M398.53 350.368h.172c.857 0 1.542-.685 1.542-1.54v-16.1c0-.856-.685-1.54-1.542-1.54h-.172c-.856 0-1.542.684-1.542 1.54v16.1c0 .856.686 1.54 1.542 1.54z" fill="url(#N)"/><path d="M347.467 374.33c0 1.712-2.056 3.253-4.798 3.253-2.57 0-4.798-1.37-4.798-3.253s2.056-3.252 4.798-3.252c2.57 0 4.798 1.37 4.798 3.252z" fill="url(#O)"/><path d="M311.654 363.377l.001-.001c1.594-1.492 3.42-2.522 5.173-3.39l8.192-4.996c2.742-1.37 4.455 1.027.514 4.45l-2.877 2.318 4.933-1.805c2.913-.855 4.284 1.883-.343 4.45l-6.387 3.146.733 2.33 2.742-2.396c4.284-2.9 6.51-.514 4.627 2.054-2.057 2.567-5.14 9.928-4.113 15.063.685 3.423.17 8.216-.685 11.982-.857 3.594-6.17 14.207-6.17 14.207l-13.708-4.793s3.084-3.252 2.57-11.126c-.152-2.58-1.18-5.296-2.203-7.997-1.283-3.4-2.558-6.756-2.08-9.805.857-4.792 7.882-12.494 9.082-13.693h-.001z" fill="url(#P)" class="D"/><path opacity=".3" d="M323.992 383.917c.343-4.28 0-5.135-.343-7.19-.343-2.397.172-5.478-.857-7.703-1.2-2.396-3.084-3.765-6.34-3.08-4.284 1.027-5.997 3.252-5.997 3.252l5.14-1.882c2.57-.685 5.14-.514 6.168 2.567.514 1.883.857 4.45 1.2 6.333.17 1.37 1.2 7.36.342 7.532-.856 0-2.74-.514-3.598-3.595-.17.685-.343 5.307-.857 5.307-3.084-.343-3.427-2.74-3.598-5.307 0-1.198-.172-2.9-.514-5.135-1.2 1.883-4.113 3.595-5.312 4.45 1.37 1.198 3.94 4.108 4.97 5.306 1.885 2.225 3.598 5.648 3.94 9.243 4.627-4.45 2.056-9.072 1.885-10.613 1.2 1.37 3.6 2.397 3.77.514z" fill="#eb5046"/><path d="M518.31 383.917c0-2.568-2.057-4.45-4.798-4.45H386.88c-2.57 0-4.798 2.054-4.798 4.45v78.738h136.055v-78.738h.172z" fill="url(#Q)"/><g fill="#ca3f3a"><path d="M387.05 477.547h126.63c2.57 0 4.798-2.054 4.798-4.45v-10.27H382.424v10.27c-.17 2.397 2.057 4.45 4.627 4.45z"/><path d="M470.16 475.664h-33.93v16.1h33.93v-16.1z"/></g><path d="M474.27 475.664h-33.928v16.1h33.928v-16.1z" fill="url(#R)"/><path d="M468.616 490.213h-41.982v4.622h41.982v-4.622z" fill="url(#S)"/><path d="M482.324 490.213h-41.982v4.622h41.982v-4.622z" fill="url(#T)"/><path d="M525.334 383.917c0-2.568-2.056-4.45-4.797-4.45h-126.46c-2.57 0-4.798 2.054-4.798 4.45v78.738h136.055v-78.738z" fill="url(#U)"/><path d="M394.077 477.547h126.63c2.57 0 4.798-2.054 4.798-4.45v-10.27H389.45v10.27c-.17 2.397 1.885 4.45 4.627 4.45z" fill="url(#V)"/><path d="M469.644 413.872a12.28 12.28 0 11-24.675 0 12.28 12.28 0 1124.675 0z" class="B C"/><path d="M354.664 490.213h-29.302v4.45h29.302v-4.45z" fill="url(#W)"/><path d="M403.33 490.213h-61.517v4.45h61.517v-4.45z" fill="url(#X)"/><g clip-path="url(#Y)"><path d="M594 461.022h-80v33.93h80v-33.93z" class="H"/><g fill="#f37753"><path d="M554.445 452.177v.077c.634-1.77 1.905-4.585 4.043-8.785 4.242-8.042 8.977-14.22 8.977-14.22s-2.072 6.865-6.313 14.906c-3.75 7.197-5.805 10.1-6.707 10.54v.4c1.087-1.43 3.48-3.88 7.693-7.715 7.004-6.276 13.91-10.787 13.91-10.787s-4.44 5.786-11.443 12.16c-4.107 3.687-6.83 5.897-8.528 7.03 1.73-1.07 4.42-2.536 8.33-4.48 8.68-4.315 16.572-6.963 16.572-6.963s-6.115 4.413-14.796 8.728c-6.61 3.36-10.2 4.788-11.738 5.06v.295c1.392-.77 4.953-2.007 11.738-3.885 9.568-2.648 17.953-3.824 17.953-3.824s-7.3 3.236-16.868 5.884c-3.12.863-5.6 1.497-7.56 1.94 1.975-.33 4.527-.683 7.757-1.057 10.16-1.275 18.643-1.177 18.643-1.177s-8 2.158-18.15 3.335c-8.18 1.026-12.204 1.162-13.513.87v.208h-.987v-.14a5.325 5.325 0 01-.8.14h-2.86c-2.17-.098-5.426-.294-9.963-.882-10.16-1.275-18.15-3.335-18.15-3.335s8.484-.098 18.644 1.177c3.053.354 5.5.68 7.427.98-1.898-.437-4.284-1.048-7.23-1.863-9.667-2.648-16.868-5.884-16.868-5.884s8.385 1.176 17.953 3.824c6.954 1.924 10.52 3.175 11.838 3.94v-.346c-1.492-.25-5.08-1.707-11.837-5.066-8.68-4.315-14.797-8.728-14.797-8.728s7.892 2.648 16.572 6.963c3.667 1.823 6.26 3.225 7.995 4.275-1.728-1.186-4.374-3.35-8.192-6.825-7.004-6.374-11.443-12.16-11.443-12.16s6.905 4.413 13.91 10.787c3 2.74 5.09 4.774 6.43 6.233-1.15-1.49-2.938-4.43-5.544-9.37-4.24-8.04-6.313-14.906-6.313-14.906s4.834 6.178 8.977 14.22c2.4 4.64 3.697 7.614 4.242 9.338v-.922c-.53-1.217-.888-4.734-.888-11.75 0-9.023 1.38-16.377 1.38-16.377s1.38 7.354 1.38 16.377c0 7.012-.358 10.53-.887 11.748zm-.987 2.872c-.146-.01-.337-.12-.58-.343a14.75 14.75 0 01.579.729v-.386zm0 1.86c-.24-.063-.553-.2-.943-.417a15.26 15.26 0 01.943.671v-.254zm.987-.018c.27-.207.604-.44 1.005-.7-.413.246-.746.407-1.005.492v.21zm-.987 2.678c-.318.02-.766-.001-1.362-.073.63.16 1.077.31 1.362.45v-.377zm.987.22c.37-.17.958-.36 1.8-.563-.803.12-1.395.167-1.8.152v.41z" class="D"/><path d="M548.624 460.728h-18.446l9.963-.294 8.483.294zm10.556 0h18.446l-9.963-.294-8.483.294z"/></g></g><path d="M427 299.052c0-11.046 8.954-20 20-20h112.62c11.045 0 20 8.954 20 20v26.612c0 11.046-8.955 20-20 20H427v-46.612z" fill="#f69477"/><g class="B"><circle cx="461.571" cy="312.78" r="5.059" class="E"/><circle cx="482.651" cy="312.78" r="5.059" class="E"/><circle cx="503.731" cy="312.78" r="5.059" class="E"/><circle cx="524.811" cy="312.78" r="5.059" class="E"/><circle cx="545.891" cy="312.78" r="5.059" class="E"/></g><defs><linearGradient id="B" x1="310.408" y1="178.118" x2="227.956" y2="328.965" xlink:href="#a"><stop stop-color="#f37753"/><stop offset="1" stop-color="#fff" stop-opacity="0"/></linearGradient><linearGradient id="C" x1="223.522" y1="144.035" x2="271.127" y2="470.013" xlink:href="#a"><stop stop-color="#f7a58d"/><stop offset="1" stop-color="#f58a6b"/></linearGradient><linearGradient id="D" x1="371.788" y1="382.548" x2="368.733" y2="348.762" xlink:href="#a"><stop stop-color="#ffb3b6"/><stop offset="1" stop-color="#ffc8c1"/></linearGradient><linearGradient id="E" x1="344.38" y1="378.589" x2="373.114" y2="388.937" xlink:href="#a"><stop stop-color="#ffb3b6" stop-opacity=".3"/><stop offset="1" stop-color="#ffc8c1"/></linearGradient><linearGradient id="F" x1="397.363" y1="436.46" x2="391.234" y2="373.259" xlink:href="#a"><stop stop-color="#ffb3b6"/><stop offset="1" stop-color="#fff"/></linearGradient><linearGradient id="G" x1="395.873" y1="369.908" x2="389.989" y2="319.279" xlink:href="#a"><stop stop-color="#ffb3b6"/><stop offset="1" stop-color="#ffc8c1"/></linearGradient><linearGradient id="H" x1="357.053" y1="371.693" x2="357.053" y2="497.748" xlink:href="#a"><stop stop-color="#f4a984"/><stop offset="1" stop-color="#ee4d47"/></linearGradient><linearGradient id="I" x1="298.709" y1="391.072" x2="298.709" y2="497.379" xlink:href="#a"><stop stop-color="#f4a984"/><stop offset="1" stop-color="#ee4d47"/></linearGradient><linearGradient id="J" x1="356.891" y1="268.853" x2="356.891" y2="336.082" xlink:href="#a"><stop stop-color="#f4a984"/><stop offset="1" stop-color="#ee4d47"/></linearGradient><linearGradient id="K" x1="323.135" y1="324.334" x2="323.135" y2="352.346" xlink:href="#a"><stop stop-color="#f4a984"/><stop offset="1" stop-color="#ee4d47"/></linearGradient><linearGradient id="L" x1="314.652" y1="326.417" x2="314.652" y2="350.55" xlink:href="#a"><stop stop-color="#f4a984"/><stop offset="1" stop-color="#ee4d47"/></linearGradient><linearGradient id="M" x1="390.288" y1="324.676" x2="390.288" y2="352.688" xlink:href="#a"><stop stop-color="#f4a984"/><stop offset="1" stop-color="#ee4d47"/></linearGradient><linearGradient id="N" x1="398.616" y1="326.759" x2="398.616" y2="350.892" xlink:href="#a"><stop stop-color="#f4a984"/><stop offset="1" stop-color="#ee4d47"/></linearGradient><linearGradient id="O" x1="342.669" y1="369.573" x2="342.669" y2="377.762" xlink:href="#a"><stop stop-color="#f4a984"/><stop offset="1" stop-color="#ee4d47"/></linearGradient><linearGradient id="P" x1="316" y1="408.552" x2="338.5" y2="324.552" xlink:href="#a"><stop stop-color="#ffb3b6"/><stop offset=".239" stop-color="#ffc5c7"/><stop offset="1" stop-color="#fff"/></linearGradient><linearGradient id="Q" x1="431.105" y1="630.315" x2="431.105" y2="145.243" xlink:href="#a"><stop stop-color="#ffedba"/><stop offset=".423" stop-color="#f16d5e"/><stop offset=".652" stop-color="#ee4d47"/></linearGradient><linearGradient id="R" x1="452.551" y1="524.182" x2="452.551" y2="430.361" xlink:href="#a"><stop stop-color="#ffedba"/><stop offset="1" stop-color="#ee4d47"/></linearGradient><linearGradient id="S" x1="441.741" y1="512.324" x2="441.741" y2="485.824" xlink:href="#a"><stop stop-color="#ffedba"/><stop offset="1" stop-color="#ee4d47"/></linearGradient><linearGradient id="T" x1="455.449" y1="504.149" x2="455.449" y2="477.201" xlink:href="#a"><stop stop-color="#ffedba"/><stop offset="1" stop-color="#ee4d47"/></linearGradient><linearGradient id="U" x1="438.24" y1="517.093" x2="438.24" y2="300.459" xlink:href="#a"><stop stop-color="#ffedba"/><stop offset="1" stop-color="#ee4d47"/></linearGradient><linearGradient id="V" x1="438.405" y1="507.215" x2="438.405" y2="421.379" xlink:href="#a"><stop stop-color="#ffedba"/><stop offset="1" stop-color="#ee4d47"/></linearGradient><linearGradient id="W" x1="335.907" y1="511.505" x2="335.907" y2="485.986" xlink:href="#a"><stop stop-color="#ffedba"/><stop offset="1" stop-color="#ee4d47"/></linearGradient><linearGradient id="X" x1="363.95" y1="490.184" x2="363.95" y2="470.769" xlink:href="#a"><stop stop-color="#ffedba"/><stop offset="1" stop-color="#ee4d47"/></linearGradient><linearGradient id="a" gradientUnits="userSpaceOnUse"/><clipPath id="Y"><path d="M514 424.052h80v71h-80z" class="B"/></clipPath><path id="Z" d="M216.62 298.205l.34 2.067 80.623-13.253-.34-2.067-80.623 13.253z"/></defs></svg>