<svg xmlns="http://www.w3.org/2000/svg" width="170" height="36" fill="none"><circle cx="85" cy="18" r="18" fill="#ed4d47"/><path fill-rule="evenodd" d="M84.9 14.66l-.04-.652c-.12-1.69.924-3.232 2.574-3.83.607-.213 1.637-.24 2.3-.053.264.08.766.346 1.122.585l.647.44.713-.226c.396-.12.924-.32 1.162-.452.224-.12.422-.186.422-.146 0 .226-.488.997-.898 1.423-.554.598-.396.652.726.253.673-.226.686-.226.554.027-.08.133-.488.598-.924 1.024-.74.73-.78.81-.78 1.423 0 .944-.45 2.912-.898 3.99-.832 2.02-2.613 4.11-4.395 5.16-2.508 1.476-5.847 1.848-8.66.984C77.6 24.314 76 23.57 76 23.436c0-.04.488-.093 1.082-.106a7.448 7.448 0 003.537-.984l.713-.425-.82-.28c-1.162-.4-2.204-1.316-2.468-2.18-.08-.28-.053-.293.686-.293l.766-.013-.647-.306c-.766-.386-1.465-1.037-1.808-1.702-.25-.48-.567-1.69-.475-1.782.026-.04.304.04.62.146.91.333 1.03.253.5-.306-1-1.01-1.293-2.513-.818-3.936l.224-.638.87.864c1.782 1.742 3.88 2.78 6.283 3.085l.66.08z" fill="#fff"/><circle cx="152" cy="18" r="18" fill="#ed4d47"/><path d="M152.002 13.898c-2.27 0-4.1 1.832-4.1 4.102s1.83 4.102 4.1 4.102 4.1-1.83 4.1-4.102-1.83-4.102-4.1-4.102zm0 6.77a2.672 2.672 0 01-2.667-2.667 2.67 2.67 0 012.667-2.667A2.67 2.67 0 01154.668 18a2.67 2.67 0 01-2.666 2.667zm5.225-6.937a.957.957 0 01-1.913 0 .96.96 0 01.957-.957c.528 0 .956.428.956.957zm2.717.97c-.06-1.282-.354-2.417-1.292-3.352s-2.07-1.228-3.352-1.292a96.91 96.91 0 00-6.6 0c-1.278.06-2.413.354-3.352 1.29s-1.228 2.07-1.292 3.352c-.075 1.32-.075 5.28 0 6.6.06 1.282.354 2.417 1.292 3.352s2.07 1.228 3.352 1.293a96.96 96.96 0 006.6 0c1.28-.06 2.416-.354 3.352-1.293s1.228-2.07 1.292-3.352c.075-1.32.075-5.277 0-6.598zm-1.706 8.015c-.28.7-.818 1.24-1.52 1.52-1.053.418-3.552.32-4.715.32s-3.666.093-4.715-.32a2.7 2.7 0 01-1.521-1.521c-.418-1.053-.32-3.552-.32-4.716s-.093-3.667.32-4.716a2.69 2.69 0 011.52-1.52c1.053-.418 3.55-.32 4.715-.32s3.666-.093 4.715.32a2.7 2.7 0 011.521 1.521c.417 1.053.32 3.552.32 4.716s.096 3.667-.32 4.716z" fill="#fff"/><circle cx="18" cy="18" r="18" fill="#ed4d47"/><path d="M19.37 28.488V18.243h2.834l.375-3.53h-3.2l.005-1.767c0-.92.088-1.414 1.413-1.414h1.772V8h-2.834c-3.405 0-4.603 1.713-4.603 4.593v2.12H13v3.53h2.122v10.245h4.248z" fill="#fff"/></svg>