<svg xmlns="http://www.w3.org/2000/svg" width="490" height="209" fill="none"><path d="M487.072 166.983a92.12 92.12 0 00-9.372-24.912 58.21 58.21 0 00-1.933-3.27c-4.928-8.176-11.015-15.486-18.068-21.834-.87-.866-1.836-1.636-2.802-2.405a93.632 93.632 0 00-25.412-15.005c-1.16-.48-2.32-.866-3.48-1.25-9.276-3.27-19.324-5.098-29.663-5.3h-3.672c-10.435.192-20.387 2.02-29.663 5.3-1.16.385-2.32.866-3.48 1.25a93.59 93.59 0 00-25.41 15.005c-.967.77-1.933 1.635-2.802 2.405-7.054 6.348-13.238 13.658-18.07 21.834-.676 1.058-1.256 2.212-1.932 3.27a92.123 92.123 0 00-9.373 24.912c-.3 1.25-.483 2.5-.773 3.75a92.995 92.995 0 00-1.45 16.447h189.478c0-5.578-.483-11.157-1.45-16.447-.193-1.25-.386-2.5-.676-3.75z" fill="#0f264c"/><path d="M122.627 173.478c0 19.505 11.23 35.264 25.042 35.264h25.04c13.812 0 24.913-15.888 24.913-35.264 0-19.505-11.23-35.264-25.042-35.264h-24.91c-13.94 0-25.042 15.888-25.042 35.264z" fill="#402b2b"/><path d="M318.828 173.1c0 19.505 11.23 35.264 25.042 35.264h25.042c13.81 0 24.912-15.888 24.912-35.264 0-19.505-11.23-35.264-25.042-35.264H343.87c-13.94 0-25.042 15.76-25.042 35.264z" fill="#f48767"/><path d="M0 121.034l7.616-17.05h22.847l.258 64.586-30.592.13L0 121.034z" fill="#000"/><path d="M120.95 170.12l100.812-.26-11.617-6.846-76.287.13-12.908 6.976z" fill="#402b2b"/><path d="M25.816 112.638l.13 64.715 81.838-.13 26.074-14.08 76.287-.13 23.493 13.95 166.514-.388a4.904 4.904 0 004.905-4.908l-.13-59.807-379.11.775z" fill="#f36f49"/><path d="M204.208 127.363l130.63-.258-.258-118.45c0-4.78-3.872-8.655-8.777-8.655L203.82.258l.388 127.105z" fill="#f48767"/><path d="M.517 127.88l203.56-.387L203.82.388 8.907.775C4.13.775.26 4.65.26 9.56l.258 118.32z" fill="#f06a5b"/><g fill="#f48767"><path d="M302.307 173.1c0 19.505-11.1 35.264-24.913 35.264h-24.912V196.47c-9.165 0-16.652-10.463-16.652-23.38s7.358-23.38 16.522-23.38v-11.884h24.913c13.812.13 24.913 15.888 25.042 35.264z"/><path d="M231.83 173.35c0 16.017 9.165 28.935 20.524 28.805 11.36 0 20.395-12.917 20.395-28.934s-9.165-28.935-20.524-28.805c-11.23 0-20.395 12.917-20.395 28.934z"/></g><path d="M252.35 192.337c7.487 0 13.425-8.526 13.425-19.118s-6.067-18.988-13.554-18.988-13.424 8.525-13.424 19.117 6.067 19 13.553 19zm0-30.356c4.4 0 8.003 5.038 8.003 11.238s-3.614 11.367-8.003 11.367-8.003-5.037-8.003-11.238c0-6.33 3.486-11.367 8.003-11.367zm.002 46.502c13.812 0 24.913-15.888 24.913-35.264s-11.23-35.263-25.042-35.263-24.912 15.888-24.912 35.263 11.36 35.394 25.04 35.264zm-.13-64.07c11.36 0 20.524 12.917 20.524 28.805 0 16.018-9.036 28.935-20.395 28.935s-20.524-12.917-20.524-28.805c0-16.018 9.165-28.935 20.395-28.935z" fill="#f7a58d"/><path d="M248.867 173.22c0-2.713 1.55-4.78 3.356-4.78s3.356 2.196 3.485 4.78c0 2.712-1.548 4.78-3.356 4.78-1.936.13-3.485-2.067-3.485-4.78z" fill="#f48766"/><path d="M105.976 173.607c0 19.505-11.1 35.264-24.913 35.264H56.15v-11.884c-9.165 0-16.65-10.463-16.65-23.38s7.358-23.38 16.522-23.38v-11.884h24.913c13.812 0 25.042 15.76 25.042 35.264z" fill="#000"/><g fill="#f69276"><path d="M421.32 76.6c0 .517.388.904.775 1.033 1.033.258 4.905.258 6.067-.13.516-.13 1.032-.517 1.032-1.163.388-10.334.388-20.41 0-29.968 0-.646-.516-1.033-1.032-1.163-1.29-.388-5.81-.646-7.23-.13-.516.13-.903.646-.903 1.163-.26 9.817.13 19.893 1.3 30.355z"/><path d="M414.996 85.77c.13 0 .258 0 .516-.13l8.778-4.392a6.025 6.025 0 003.356-5.425l-.13-32.422a2.315 2.315 0 00-2.324-2.325h-24.138c-.645 0-1.033.517-1.033 1.033 0 .646.517 1.033 1.033 1.033h24.138c.13 0 .13.13.13.13l.13 32.422c0 1.55-.903 2.842-2.194 3.488l-8.778 4.392c-.516.258-.774.904-.516 1.42.258.646.646.775 1.033.775z"/></g><path d="M221.76 127.105h29.044c15.36 0 18.974 7.62 28.397 26.35l29.818-.13v-5.94l113.85-.26c.517-9.43 1.55-28.547 1.55-46.63v-1.808c0-5.167-.903-10.85-2.452-16.534-6.067-22.217-21.428-45.856-27.753-54.5l-5.42-7.492c-4.39-5.813-7.358-8.784-12.908-8.784l-137.988.388a6.51 6.51 0 00-6.195 4.65c-11.876 43.66-10.07 76.857-9.94 110.7zm116.302-99.98c-.13-.646.387-1.162 1.033-1.162l41.95-.13c2.453 0 4.905 1.292 6.454 3.488 16.393 22.347 22.977 42.756 25.43 54.5l2.582 12.4c.387 1.808-.775 3.23-2.582 3.23h-10.197c-1.678 0-3.485-.775-4.776-2.067l-20.91-20.022c-2.324-2.196-5.422-3.488-8.39-3.488h-25.04l-5.55-46.76z" fill="#f36f49"/><path d="M316.376 82.54l2.84 12.917c.645 3.1 3.356 5.296 6.454 5.425 40.79 1.42 74.61 1.55 98.747-.258v-1.808c0-5.167-.904-10.85-2.453-16.534l-105.588.258z" fill="#f6977c"/><path d="M240.993 26.093l41.952-.13c2.452 0 4.647 1.292 5.808 3.488 11.747 22.347 14.2 42.756 14.2 54.51v12.4c0 1.808-1.42 3.23-3.227 3.23h-10.197c-1.678 0-3.356-.775-4.39-2.067l-16.78-20.022c-1.937-2.196-4.647-3.617-7.616-3.488H235.7l4.002-46.76c0-.646.516-1.162 1.3-1.162z" fill="#f36f49"/><path d="M221.76 127.105h29.044c15.36 0 18.974 7.62 28.397 26.35l29.818-.13v-5.94l113.85-.26c.517-9.43 1.55-28.547 1.55-46.63-24.138 1.81-58.086 1.81-98.747.26-3.097-.13-5.808-2.326-6.454-5.426-.903-4.52-1.936-8.913-2.84-12.917-5.55-23.638-11.618-40.56-19.62-58.902-.645-1.42.388-3.1 1.937-3.1l90.098-.258c-4.39-5.813-7.358-8.784-12.908-8.784l-137.988.388a6.51 6.51 0 00-6.195 4.65c-11.876 43.66-10.07 76.857-9.94 110.7zm13.812-53.1l4-46.76c0-.646.646-1.162 1.29-1.162l41.952-.13c2.452 0 4.646 1.292 5.808 3.488 11.747 22.347 14.2 42.756 14.2 54.5v12.4c0 1.808-1.42 3.23-3.227 3.23H289.4c-1.678 0-3.356-.775-4.39-2.067l-16.78-20.022c-1.936-2.196-4.646-3.617-7.615-3.488h-25.042z" fill="#f7a58d"/><path d="M226.794 123.747c0 1.937 1.55 3.358 3.485 3.358h20.524c15.36 0 18.975 7.62 28.398 26.35l29.818-.13v-5.942l-.13-52.314c0-25.964-4.646-42.368-16.91-68.332-1.807-3.875-5.81-6.33-10.068-6.33l-44.404.13a2.09 2.09 0 00-2.066 1.55c-8.777 33.326-8.777 87.58-8.648 101.66zm8.778-49.73l4-46.76c0-.646.645-1.163 1.29-1.163l41.95-.13c2.453 0 4.647 1.292 5.81 3.488 11.746 22.347 14.2 42.756 14.2 54.5v12.4c0 1.808-1.42 3.23-3.227 3.23h-10.198c-1.678 0-3.356-.775-4.388-2.067l-16.78-20.022c-1.936-2.196-4.647-3.617-7.616-3.488h-25.04z" fill="#f58a6b"/><path d="M241.252 27.643l41.693-.13c1.807 0 3.485 1.033 4.39 2.583 12.133 23.122 14.07 43.66 14.07 53.736v12.4a1.71 1.71 0 01-1.678 1.679H289.53c-1.29 0-2.453-.517-3.227-1.42L269.52 76.47a11.672 11.672 0 00-8.906-4.133H237.38l3.873-44.693zm-.26-1.55c-.645 0-1.3.517-1.3 1.162l-4.002 46.76h25.042c2.97 0 5.68 1.292 7.616 3.488l16.78 20.022c1.033 1.292 2.71 2.067 4.39 2.067h10.197a3.196 3.196 0 003.227-3.23v-12.4c0-11.755-2.452-32.164-14.2-54.51-1.16-2.196-3.356-3.488-5.808-3.488l-41.952.13z" fill="#f7a58d"/><path d="M308.892 122.713v24.672l45.05-.13c-.516-6.46-1.678-12.66-3.614-18.472-.775-2.325-2.7-4.004-5.164-4.392-9.94-1.162-22.6-1.68-36.27-1.68zm91.13 24.543h22.33c.387-5.426.774-14.2 1.16-24.156-5.42.26-10.455.775-14.973 1.42a6.442 6.442 0 00-5.163 4.392c-1.807 5.684-2.84 11.884-3.356 18.343zm-91.002 24.93l104.426-.258c7.1 0 12.908-5.813 12.908-12.917v-2.196a3.61 3.61 0 00-3.614-3.617l-113.6.258-.13 18.73z" fill="#f6977c"/><path d="M289.787 172.187h19.233v-18.73h-29.56l3.227 13.046c.774 3.358 3.743 5.684 7.1 5.684z" fill="#f7a58d"/><path d="M243.833 103.855c4.39.13 12.908 1.033 12.908 4.133s-7.486 4.134-13.553 4.134-6.713-3.36-7.23-4.78c-.387-1.42-.774-3.617 7.874-3.487z" fill="#f6977c"/><path d="M244.22 107.213c-2.065 0-4.26-.646-5.292-1.68.774-.388 1.936-.775 3.743-.775 3.356 0 8.778.387 11.617 1.68-.387.258-1.42.775-3.098.775h-6.97zm8.65 2.454c.775 0 1.162.13 1.3.26-2.323 1.033-6.583 1.42-8.648 1.42-2.97 0-5.035 0-5.68-.646.516-.388 1.678-1.034 2.84-1.034 1.55.13 9.165 0 10.197 0z" fill="#f47b58"/><path d="M309.02 147.514v5.942l113.462-.258.387-5.942-113.85.258z" fill="#f58a6b"/><path d="M357.942 121.42v24.672l38.08-.13V121.29c0-2.97-2.7-5.296-6.067-5.296H363.88c-3.227.13-5.938 2.584-5.938 5.425z" fill="#f16036" opacity=".2"/><path d="M408.8 145.2h8.003c2.065 0 3.873-1.68 3.873-3.875V137.3c0-2.067-1.678-3.875-3.873-3.875H408.8c-2.065 0-3.872 1.68-3.872 3.875v4.004c0 2.196 1.807 3.875 3.872 3.875zm-75.773.258h8.003c2.065 0 3.872-1.68 3.872-3.875v-4.004c0-2.067-1.678-3.876-3.872-3.876h-8.003c-2.066 0-3.873 1.68-3.873 3.876v4.004c0 2.067 1.678 3.875 3.873 3.875z" fill="#fff"/><path d="M281.395 76.858c0 .517.388.904.775 1.033a71.415 71.415 0 0015.748-.13c.645-.13 1.033-.517 1.033-1.163.387-10.334.387-20.41 0-29.968 0-.646-.517-1.033-1.033-1.163-5.55-.646-11.1-.646-16.9 0-.516.13-.903.646-.903 1.163-.388 9.688.13 19.763 1.3 30.226z" fill="#f7a58d"/><path d="M301.402 86.03a.97.97 0 00.904-.646c.258-.517 0-1.163-.517-1.42l-8.777-4.263c-1.29-.646-2.194-2.067-2.194-3.488l-.13-32.422c0-.13.13-.13.13-.13h5.42c.645 0 1.033-.517 1.033-1.033 0-.646-.517-1.033-1.033-1.033h-5.42a2.315 2.315 0 00-2.324 2.325l.13 32.422a6.024 6.024 0 003.356 5.425l8.778 4.263h.645z" fill="#f69276"/><path d="M360.604 173.716l36.53-.08-.024-10.98-36.53.08.024 10.98z" fill="#f8b4a0"/><path opacity=".6" d="M296.508 23.9c8.003 18.342 13.94 35.264 19.62 58.902l105.588-.258c-6.066-22.218-21.427-45.856-27.752-54.5l-5.42-7.492-90.1.258c-1.55.13-2.582 1.68-1.936 3.1z" fill="url(#A)"/><path d="M37.693 173.736c0 16.018 9.165 28.935 20.524 28.806 11.36 0 20.395-12.918 20.395-28.935s-9.165-28.934-20.524-28.805c-11.36 0-20.395 12.917-20.395 28.934z" fill="#000"/><path d="M58.217 192.724c7.487 0 13.424-8.525 13.424-19.117 0-10.463-6.067-18.988-13.554-18.988s-13.424 8.525-13.424 19.117 6.067 18.988 13.554 18.988zm-.13-30.355c4.39 0 8.003 5.038 8.003 11.238s-3.614 11.367-8.003 11.367-8.003-5.038-8.003-11.238c0-6.33 3.614-11.367 8.003-11.367z" fill="#625c5c"/><path d="M58.217 209c13.812 0 24.913-15.888 24.913-35.264 0-19.505-11.23-35.264-25.042-35.264s-24.913 15.888-24.913 35.264c0 19.505 11.23 35.264 25.042 35.264zm-.13-64.198c11.36 0 20.524 12.917 20.524 28.805s-9.036 28.934-20.395 28.934-20.524-12.917-20.524-28.805 9.036-28.934 20.395-28.934z" fill="#424242"/><path d="M54.73 173.736c0-2.712 1.55-4.78 3.356-4.78 1.936 0 3.356 2.196 3.485 4.78 0 2.713-1.55 4.78-3.356 4.78-1.936 0-3.485-2.196-3.485-4.78z" fill="#8b8282"/><path d="M233.325 185.603a91.37 91.37 0 00-9.202-24.608 56.8 56.8 0 00-1.898-3.231c-4.838-8.076-10.814-15.297-17.74-21.568-.853-.855-1.802-1.615-2.75-2.375a91.78 91.78 0 00-24.95-14.822c-1.138-.475-2.276-.855-3.415-1.235-9.107-3.23-18.973-5.035-29.124-5.225h-3.605c-10.245.2-20.016 1.995-29.124 5.225-1.138.38-2.276.855-3.415 1.235a91.784 91.784 0 00-24.95 14.822c-.95.76-1.897 1.615-2.75 2.375-6.925 6.27-12.997 13.492-17.74 21.568-.664 1.045-1.233 2.185-1.897 3.23a91.34 91.34 0 00-9.202 24.608c-.285 1.235-.474 2.47-.76 3.705a92.244 92.244 0 00-1.423 16.247h186.033c0-5.51-.474-11.02-1.423-16.247-.2-1.235-.38-2.47-.664-3.705z" fill="#fcddd4"/><defs><linearGradient id="A" x1="345.764" y1=".781" x2="396.316" y2="121.884" gradientUnits="userSpaceOnUse"><stop stop-color="#f7a58d"/><stop offset=".926" stop-color="#fff"/></linearGradient></defs></svg>